<?xml version="1.0" encoding="UTF-8" standalone="no"?>
<!-- Created with Inkscape (http://www.inkscape.org/) -->

<svg
   xmlns:dc="http://purl.org/dc/elements/1.1/"
   xmlns:cc="http://creativecommons.org/ns#"
   xmlns:rdf="http://www.w3.org/1999/02/22-rdf-syntax-ns#"
   xmlns:svg="http://www.w3.org/2000/svg"
   xmlns="http://www.w3.org/2000/svg"
   xmlns:xlink="http://www.w3.org/1999/xlink"
   xmlns:sodipodi="http://sodipodi.sourceforge.net/DTD/sodipodi-0.dtd"
   xmlns:inkscape="http://www.inkscape.org/namespaces/inkscape"
   width="171.8504"
   height="171.8504"
   id="svg2"
   version="1.1"
   inkscape:version="0.48.4 r9939"
   sodipodi:docname="cc_1_37.svg"
   inkscape:export-filename="/home/svet/Dropbox/falanster/design/signes/geek_5_37.png"
   inkscape:export-xdpi="300"
   inkscape:export-ydpi="300">
  <defs
     id="defs4">
    <path
       sodipodi:type="arc"
       style="fill:none;stroke:none"
       id="path3813"
       sodipodi:cx="313.65237"
       sodipodi:cy="85.482361"
       sodipodi:rx="51.51778"
       sodipodi:ry="51.51778"
       d="m 365.17015,85.482361 a 51.51778,51.51778 0 1 1 -103.03556,0 51.51778,51.51778 0 1 1 103.03556,0 z"
       transform="matrix(-0.03446126,1.0714068,1.0714068,0.03446126,-804.39667,599.84293)" />
    <clipPath
       clipPathUnits="userSpaceOnUse"
       id="clipPath3962">
      <rect
         style="fill:#672178;fill-opacity:1;fill-rule:nonzero;stroke:none"
         id="rect3964"
         width="104.64286"
         height="124.28571"
         x="-616.40442"
         y="876.62378" />
    </clipPath>
    <clipPath
       clipPathUnits="userSpaceOnUse"
       id="clipPath3966">
      <rect
         style="fill:#672178;fill-opacity:1;fill-rule:nonzero;stroke:none"
         id="rect3968"
         width="104.64286"
         height="124.28571"
         x="-616.40442"
         y="876.62378" />
    </clipPath>
    <clipPath
       clipPathUnits="userSpaceOnUse"
       id="clipPath3970">
      <rect
         style="fill:#672178;fill-opacity:1;fill-rule:nonzero;stroke:none"
         id="rect3972"
         width="107.99512"
         height="128.26723"
         x="-10.890067"
         y="-41.861126" />
    </clipPath>
  </defs>
  <sodipodi:namedview
     id="base"
     pagecolor="#ffffff"
     bordercolor="#666666"
     borderopacity="1.0"
     inkscape:pageopacity="0.0"
     inkscape:pageshadow="2"
     inkscape:zoom="2.8"
     inkscape:cx="159.35604"
     inkscape:cy="93.379533"
     inkscape:document-units="px"
     inkscape:current-layer="layer1"
     showgrid="false"
     fit-margin-top="0"
     fit-margin-left="0"
     fit-margin-right="0"
     fit-margin-bottom="0"
     inkscape:window-width="1301"
     inkscape:window-height="744"
     inkscape:window-x="65"
     inkscape:window-y="24"
     inkscape:window-maximized="1" />
  <metadata
     id="metadata7">
    <rdf:RDF>
      <cc:Work
         rdf:about="">
        <dc:format>image/svg+xml</dc:format>
        <dc:type
           rdf:resource="http://purl.org/dc/dcmitype/StillImage" />
        <dc:title></dc:title>
      </cc:Work>
    </rdf:RDF>
  </metadata>
  <g
     inkscape:label="Layer 1"
     inkscape:groupmode="layer"
     id="layer1"
     transform="translate(809.61871,-852.98764)">
    <path
       sodipodi:type="arc"
       style="fill:#c837ab;fill-opacity:1;fill-rule:nonzero;stroke:none"
       id="path2987"
       sodipodi:cx="-418.57144"
       sodipodi:cy="633.79077"
       sodipodi:rx="387.14285"
       sodipodi:ry="387.14285"
       d="m -31.428589,633.79077 c 0,213.8131 -173.329761,387.14283 -387.142851,387.14283 -213.8131,0 -387.14285,-173.32973 -387.14285,-387.14283 0,-213.81309 173.32975,-387.14285 387.14285,-387.14285 213.81309,0 387.142851,173.32976 387.142851,387.14285 z"
       transform="matrix(0.22194701,0,0,0.22194701,-630.79283,798.24487)" />
    <path
       sodipodi:type="arc"
       style="fill:none;stroke:none;stroke-width:0.42605752000000002;stroke-miterlimit:4;stroke-dasharray:1.27817252000000003, 1.27817252000000003;stroke-dashoffset:0"
       id="path2991"
       sodipodi:cx="32.857143"
       sodipodi:cy="92.207542"
       sodipodi:rx="55.357143"
       sodipodi:ry="55.357143"
       d="m 88.214287,92.207542 c 0,30.572908 -24.784238,55.357148 -55.357144,55.357148 C 2.2842373,147.56469 -22.5,122.78045 -22.5,92.207542 c 0,-30.572906 24.7842373,-55.357143 55.357143,-55.357143 30.572906,0 55.357144,24.784237 55.357144,55.357143 z"
       transform="matrix(1.1796109,0,0,1.1796109,-762.45216,830.14382)" />
    <path
       sodipodi:type="arc"
       style="fill:none;stroke:none;stroke-width:0.46126875000000001;stroke-miterlimit:4;stroke-dasharray:1.38380622000000009, 1.38380622000000009;stroke-dashoffset:0"
       id="path2991-3"
       sodipodi:cx="32.857143"
       sodipodi:cy="92.207542"
       sodipodi:rx="55.357143"
       sodipodi:ry="55.357143"
       d="m 88.214287,92.207542 c 0,30.572908 -24.784238,55.357148 -55.357144,55.357148 C 2.2842373,147.56469 -22.5,122.78045 -22.5,92.207542 c 0,-30.572906 24.7842373,-55.357143 55.357143,-55.357143 30.572906,0 55.357144,24.784237 55.357144,55.357143 z"
       transform="matrix(1.0836235,0,0,1.0836235,-759.29828,838.99458)" />
    <text
       xml:space="preserve"
       style="font-size:13.60228539px;font-style:normal;font-variant:normal;font-weight:normal;font-stretch:normal;line-height:125%;letter-spacing:0px;word-spacing:0px;fill:#333333;fill-opacity:1;stroke:none;font-family:Ubuntu Mono;-inkscape-font-specification:Ubuntu Mono"
       id="text3033"
       sodipodi:linespacing="125%"
       transform="matrix(-0.02069469,0.99978585,-0.99978585,-0.02069469,199.93114,1682.0409)"><textPath
         xlink:href="#path3813"
         id="textPath3818"
         style="font-size:10px;fill:#333333">cc.falanster.by</textPath></text>
    <g
       id="g3153"
       transform="matrix(0.96895919,0,0,0.96895919,-760.8524,918.61405)"
       clip-path="url(#clipPath3970)">
      <circle
         id="circle3155"
         r="28.836"
         cy="28.500999"
         cx="37.785"
         sodipodi:cx="37.785"
         sodipodi:cy="28.500999"
         sodipodi:rx="28.836"
         sodipodi:ry="28.836"
         style="fill:#ffffff"
         d="M 66.621,28.500999 C 66.621,44.426683 53.710683,57.337 37.785,57.337 21.859317,57.337 8.9489994,44.426683 8.9489994,28.500999 c 0,-15.925683 12.9103176,-28.83599999 28.8360006,-28.83599999 15.925683,0 28.836,12.91031699 28.836,28.83599999 z" />
      <path
         id="path3157"
         d="m 37.441,-3.5 c 8.951,0 16.572,3.125 22.857,9.372 3.008,3.009 5.295,6.448 6.857,10.314 1.561,3.867 2.344,7.971 2.344,12.314 0,4.381 -0.773,8.486 -2.314,12.313 -1.543,3.828 -3.82,7.21 -6.828,10.143 -3.123,3.085 -6.666,5.448 -10.629,7.086 -3.961,1.638 -8.057,2.457 -12.285,2.457 -4.228,0 -8.276,-0.808 -12.143,-2.429 C 21.434,56.452 17.967,54.109 14.9,51.043 11.833,47.977 9.5,44.519 7.9,40.671 6.3,36.823 5.5,32.767 5.5,28.5 5.5,24.271 6.309,20.205 7.928,16.3 9.547,12.395 11.9,8.9 14.985,5.814 21.08,-0.394 28.565,-3.5 37.441,-3.5 z m 0.116,5.772 c -7.314,0 -13.467,2.553 -18.458,7.657 -2.515,2.553 -4.448,5.419 -5.8,8.6 -1.354,3.181 -2.029,6.505 -2.029,9.972 0,3.429 0.675,6.734 2.029,9.913 1.353,3.183 3.285,6.021 5.8,8.516 2.514,2.496 5.351,4.399 8.515,5.715 3.161,1.314 6.476,1.971 9.943,1.971 3.428,0 6.75,-0.665 9.973,-1.999 3.219,-1.335 6.121,-3.257 8.713,-5.771 4.99,-4.876 7.484,-10.99 7.484,-18.344 0,-3.543 -0.648,-6.895 -1.943,-10.057 C 60.491,15.283 58.604,12.465 56.13,9.987 50.984,4.844 44.795,2.272 37.557,2.272 z m -0.401,20.915 -4.287,2.229 c -0.458,-0.951 -1.019,-1.619 -1.685,-2 -0.667,-0.38 -1.286,-0.571 -1.858,-0.571 -2.856,0 -4.286,1.885 -4.286,5.657 0,1.714 0.362,3.084 1.085,4.113 0.724,1.029 1.791,1.544 3.201,1.544 1.867,0 3.181,-0.915 3.944,-2.743 l 3.942,2 c -0.838,1.563 -2,2.791 -3.486,3.686 -1.484,0.896 -3.123,1.343 -4.914,1.343 -2.857,0 -5.163,-0.875 -6.915,-2.629 -1.752,-1.752 -2.628,-4.19 -2.628,-7.313 0,-3.048 0.886,-5.466 2.657,-7.257 1.771,-1.79 4.009,-2.686 6.715,-2.686 3.963,-0.002 6.8,1.541 8.515,4.627 z m 18.457,0 -4.229,2.229 c -0.457,-0.951 -1.02,-1.619 -1.686,-2 -0.668,-0.38 -1.307,-0.571 -1.914,-0.571 -2.857,0 -4.287,1.885 -4.287,5.657 0,1.714 0.363,3.084 1.086,4.113 0.723,1.029 1.789,1.544 3.201,1.544 1.865,0 3.18,-0.915 3.941,-2.743 l 4,2 c -0.875,1.563 -2.057,2.791 -3.541,3.686 -1.486,0.896 -3.105,1.343 -4.857,1.343 -2.896,0 -5.209,-0.875 -6.941,-2.629 -1.736,-1.752 -2.602,-4.19 -2.602,-7.313 0,-3.048 0.885,-5.466 2.658,-7.257 1.77,-1.79 4.008,-2.686 6.713,-2.686 3.962,-0.002 6.783,1.541 8.458,4.627 z"
         inkscape:connector-curvature="0" />
    </g>
    <path
       style="fill:#ffffff;stroke:#000000;stroke-width:0.29978526000000000px;stroke-linecap:butt;stroke-linejoin:miter;stroke-opacity:1;opacity:0.8"
       d="m -576.69566,980.69899 -4.54243,0 -6.3594,-2.1197 -7.11649,-4.84528 -8.02496,-8.17638 -1.66555,-6.05654 0.75707,-3.17974 3.33111,-1.51419 4.84527,0 5.75374,1.05991 6.66224,2.11982 7.87355,2.72546 8.47921,1.05992 6.05657,0 6.81365,0.45416 2.57405,2.57411 1.05989,5.29944 -1.05989,6.81376 -3.17971,5.29945 -4.39101,3.63402 -4.08819,1.51408 -4.2396,0 -3.63396,-0.30282 -2.87686,-1.21126 -2.11981,-2.87693 z"
       id="path3171"
       inkscape:connector-curvature="0"
       clip-path="url(#clipPath3966)"
       transform="translate(-155,1.4285714)" />
    <path
       style="fill:#000000"
       d="m -566.86356,988.61219 c -3.0386,-0.5682 -6.83795,-0.79405 -8.61611,-3.65792 -1.2492,-1.31248 -1.61704,-3.90512 -4.00161,-3.41889 -3.86531,-0.25128 -7.80005,-1.20741 -11.00997,-3.4239 -2.82914,-1.74763 -5.35612,-3.85113 -7.92678,-5.9965 -3.31286,-3.08715 -5.92281,-6.92791 -6.84028,-11.43668 -0.67684,-1.49425 1.15336,-4.05985 -1.1586,-4.16548 -3.6758,-1.46722 -5.28686,-5.68215 -5.9338,-9.30929 -0.15831,-2.21042 1.76205,-4.37572 3.82997,-4.20385 1.7624,0.31692 3.74377,1.54148 3.98536,3.64276 1.24965,2.44375 1.53042,5.23101 1.63035,7.89129 7.08818,-1.77411 14.11114,0.8211 20.74188,3.07851 8.53027,2.83811 17.54323,3.77896 26.49685,3.59799 2.83861,-0.098 5.05497,1.67384 5.76341,4.43066 1.53001,5.46454 0.60426,11.55398 -2.94281,16.08817 -2.92172,4.56625 -8.70699,6.98691 -14.01786,6.88313 z m 1.64906,-1.98456 c 5.3665,-0.47948 10.27868,-4.10137 12.35036,-9.07386 1.86323,-3.80076 2.06033,-8.6373 0.37842,-12.53228 -1.64711,-2.76987 -5.64184,-1.86691 -8.35641,-2.02071 -5.87453,-0.23121 -11.74008,-0.76653 -17.42384,-2.30323 -6.51123,-1.6399 -12.7447,-4.49782 -19.5213,-4.91164 -2.59045,-0.41475 -6.18365,0.83522 -5.45067,4.07909 0.9358,5.76318 5.26137,10.27194 9.95342,13.48129 4.53584,4.18066 10.67655,6.74206 16.91272,6.11999 2.01103,1.60479 1.55146,5.26003 4.43501,5.90519 2.03006,1.15938 4.44223,1.1364 6.72229,1.25616 z m -4.29069,-0.94693 c -0.25726,-0.18178 0.50677,0.14564 0,0 z m 0.25393,-0.0198 c 0.25076,-0.14575 0.075,0.1742 0,0 z m 1.07017,-2.29123 c -3.3006,0.35785 -5.31849,-2.57515 -6.83583,-4.96398 -1.92573,-1.87182 -3.1708,-3.23548 -6.28345,-2.41425 -2.11764,-0.50897 -7.43119,0.62802 -7.39534,-2.44829 1.66981,-1.50884 3.79738,1.05664 5.89512,0.45626 7.97323,0.65856 16.32374,-0.59829 23.34318,-4.48394 2.16017,-1.27177 3.23197,-2.94035 0.67199,-4.08071 0.30461,-2.0143 2.92409,-0.70148 3.8052,0.29978 1.23323,0.78905 3.23539,3.71051 1.03848,4.39694 -1.27437,-2.27058 -1.85662,-1.27912 -3.32913,0.26084 -2.26302,0.78427 -2.45758,2.60536 -2.51185,4.78302 -0.43831,2.32155 -1.99227,4.06476 -3.24424,6.00594 -1.67223,0.79487 -3.25791,2.03378 -5.15413,2.18839 z m 4.7196,-6.85049 c 0.23658,-0.80093 -0.35671,-0.0863 0,0 z m -69.21274,4.29014 c 0.0488,-0.24789 0.20686,0.11766 0,0 z m 36.59635,-0.77132 c 0.14152,-0.13247 0.14169,0.13246 0,0 z m 0.30835,0 c 0.0438,-0.13257 0.0896,0.12919 0,0 z m 89.13186,-1.5599 c 0.0439,-0.13258 0.0896,0.12931 0,0 z m -4.28066,-0.29011 c 0.13945,-0.13013 0.093,0.13433 0,0 z m 4.07433,-4.37806 c 0.15944,-0.0513 0.0149,0.0711 0,0 z m 1.45786,-0.26107 c 0.0597,-0.16943 0.12589,0.063 0,0 z m 0.42019,-0.21711 c -0.0852,-0.18027 0.13265,0.0525 0,0 z m -2.23401,-0.47644 c 0.0925,-0.13012 0.0929,0.13002 0,0 z m -9.94662,-1.04056 c 0.15944,-0.0525 0.0149,0.0711 0,0 z m -42.98109,-10.94158 c 0.15206,-0.43097 0.21226,0.22166 0,0 z m 0.29957,0.0233 c -0.13723,-0.18726 0.3099,-0.0384 0,0 z m 27.15254,-20.98347 c -4.13807,-0.41732 -8.42982,-0.90997 -12.10558,-2.95425 -3.21203,-2.33961 -5.45283,-5.73319 -7.11172,-9.2357 -0.83062,-1.70064 -0.99351,-3.98791 -1.55562,-5.92396 -0.39251,-5.6945 1.58811,-11.90181 6.21734,-15.56825 1.76102,-1.55197 3.82588,-2.78597 5.89957,-3.72054 4.63757,-1.88638 9.99018,-1.30373 14.53868,0.42244 3.00674,1.43982 5.79451,3.41587 8.0866,5.83618 2.6958,2.76778 4.29288,6.5767 4.21631,10.49956 0.26236,5.17608 -1.22344,10.82732 -5.11611,14.43592 -1.70367,2.05383 -4.38375,2.70342 -6.45839,4.26985 -2.29495,0.31704 -4.27105,1.93141 -6.61108,1.93875 z m 2.0227,-3.56802 c 2.27613,-1.08278 4.86581,-2.22688 6.28494,-4.37341 -2.43443,1.17081 -4.83799,2.43792 -7.09951,3.9288 0.22673,0.21757 0.40014,0.83253 0.81457,0.44461 z m -8.49357,-0.24697 c 2.29963,-2.70307 5.76335,-3.98057 8.33808,-6.43959 2.08242,-2.17907 -3.52608,2.26873 -4.94076,2.9294 -0.92742,1.30803 -6.44137,2.92764 -3.70853,3.75342 l 0.31121,-0.24323 0,0 z m -5.20086,-1.41695 c -0.19591,-0.45977 -0.20517,0.18563 0,0 z m 1.59123,-0.16698 c 3.20665,-1.90014 5.85062,-4.7014 9.06523,-6.66895 1.17935,-1.12649 8.20273,-5.54058 4.39673,-3.81766 -5.06748,2.90607 -9.98086,6.10376 -14.41218,9.91305 -0.11032,0.74123 0.4815,0.42782 0.95022,0.57356 z m -3.94924,-2.03459 c 3.8244,-3.45353 8.20991,-6.49941 12.23194,-9.84659 2.64017,-2.0157 5.62541,-3.74129 8.01657,-5.97842 -6.00928,3.5032 -11.73286,7.55116 -17.11981,11.95114 -0.99328,1.30676 -6.58474,2.23666 -3.1287,3.87387 z m -2.42029,-3.86035 c 6.39238,-6.02973 14.34274,-10.12934 20.90146,-15.9774 3.975,-3.88471 -1.08376,0.0152 -2.87049,1.3843 -5.73823,4.61627 -11.9336,8.55836 -17.46609,13.43232 -0.20043,0.37697 -1.93174,0.87289 -0.56488,1.16078 z m 22.87687,-0.3673 c 2.41964,-1.94481 6.37522,-2.05336 7.30757,-5.01261 0.62609,-2.3072 -2.81906,1.7059 -3.97733,2.1351 -0.49018,0.54804 -3.8633,2.60537 -3.33024,2.87751 z m -3.91547,-0.28287 c 2.08397,-1.55454 4.35257,-1.90318 6.13183,-3.94442 1.07311,-1.89922 4.01387,-3.59275 4.9556,-5.3581 -3.22214,2.20017 -6.13791,5.53289 -9.63529,7.68093 -0.30579,0.35424 -2.68497,1.6779 -1.45214,1.62159 z m -6.25443,-1.57576 c -0.20292,-0.035 -0.002,0.17956 0,0 z m -6.88542,-0.0139 c 1.89227,-1.23599 5.6825,-4.62736 1.65559,-1.56783 -0.18616,0.26678 -2.66438,1.68395 -1.65559,1.56783 z m 7.19299,-0.17584 c 0.35112,-0.39738 -0.5615,0.16627 0,0 z m -14.19871,-0.57684 c 4.33223,-3.85579 -1.78133,-1.56001 0,0 z m 15.43067,-0.14213 c 5.0038,-2.96041 9.93389,-6.07753 14.57764,-9.56137 0.69055,-3.57315 -3.74604,1.58065 -5.40546,2.63813 -3.12512,2.38613 -6.58969,4.32616 -9.53494,6.94445 l 0.13604,0.056 0.22672,-0.0769 0,0 z m -15.13181,-4.8784 c 1.97234,-2.2215 3.85157,-4.35812 0.49635,-1.16754 -1.65528,-0.0116 -2.04191,3.55497 -0.49635,1.16754 z m 7.81863,-0.21944 c 5.30978,-3.80647 10.62169,-7.62997 15.47545,-12.02681 3.22049,-2.64989 -4.00859,2.1821 -4.78567,3.62387 -3.58155,2.92707 -7.55124,5.41244 -11.06726,8.45167 l 0.37748,-0.0489 0,-1.1e-4 z m 9.34468,-1.43783 c 3.28051,-2.03016 6.31654,-4.92631 9.87756,-6.45427 3.01415,-0.24953 -0.28013,-4.66374 -1.40261,-1.20112 -2.27451,2.92742 -6.46531,5.5772 -8.47496,7.65563 l 1e-5,-2.4e-4 z m -9.83497,-0.62567 c 2.91872,-2.39327 6.537,-4.51088 9.05502,-7.02867 -3.47941,1.87322 -6.75414,4.38016 -9.40114,7.25534 l 0.34612,-0.22667 0,0 z m -7.46063,-2.21801 c 2.54583,-2.73713 5.45004,-5.09622 8.2126,-7.59698 -2.57323,1.4377 -4.88408,3.65979 -7.06267,5.72015 -1.02962,-1.03613 -1.56067,2.25088 -1.14993,1.87683 z m 5.39684,-0.90542 c -0.24748,0.10142 -0.15202,0.27798 0,0 z m 0.77161,-0.52821 c 3.25973,-2.74096 7.07095,-4.85787 10.03885,-7.91809 -3.78631,1.89641 -7.01138,4.98193 -10.19549,7.78261 l -0.12587,0.23996 0.28251,-0.10494 0,0 z m 9.23298,-4.51973 c 1.18705,-0.36426 2.21146,-1.67626 3.14571,-1.85246 0.51189,0.59339 1.70274,-2.26254 1.34224,-1.38838 1.2174,-0.0466 2.10703,-1.23341 0.47878,-1.49786 -1.17511,-0.19193 -1.53187,1.44831 -2.44183,2.05895 -0.77849,0.90495 -2.00262,1.86342 -2.66678,2.52281 -0.37894,0.28637 0.1415,0.31261 0.14188,0.15694 z m -6.73583,-1.93781 c 2.74824,-1.31714 3.83501,-4.80704 0.63051,-1.8423 -1.75889,0.5296 -0.72004,1.51967 -0.63051,1.8423 z m -11.08137,18.0809 c 0.0313,-0.19158 0.086,0.1903 0,0 z m -63.73495,-0.65682 c -0.0635,-0.28007 0.32999,-0.0117 0,0 z m 32.91289,-3.3768 c -6.33717,0.0618 -12.46918,-3.30169 -16.20307,-8.31873 -2.41361,-3.84111 -3.69262,-8.60034 -2.66074,-13.14688 0.53578,-3.24458 1.57559,-6.64259 4.17181,-8.81955 1.58536,-1.95728 3.4469,-3.26207 5.82272,-4.15278 2.37985,-1.75241 5.69433,-1.50697 8.51768,-1.78483 5.21708,0.22352 10.50535,2.6514 13.44755,7.09745 2.84313,3.69663 4.45921,8.69187 4.11414,13.32109 -0.48506,1.65143 -0.20443,3.46074 -1.36798,4.87337 -1.22496,3.65525 -3.99311,6.39936 -7.17197,8.37996 -2.78293,0.99543 -5.54531,2.59603 -8.67014,2.5509 z m -4.6797,-6.76408 c 1.02175,-1.18165 0.38193,-0.89399 0,0 z m 2.90213,-0.81084 c -0.0137,-0.20056 -0.12992,0.19798 0,0 z m -2.0016,-0.27145 c 2.72336,-2.70004 -0.35966,-0.49754 0,0 z m 2.54879,-0.35425 c 3.09512,-3.5644 -0.59439,0 0,0 z m -1.20015,-1.40575 c 2.12632,-2.94105 4.78206,-5.70277 6.82154,-8.58028 -2.40033,2.83284 -4.99058,5.65241 -6.96842,8.74353 l 0.14685,-0.16325 3e-5,0 z m 2.77221,-0.55071 c 3.53909,-4.0152 -1.05869,0.59677 0,0 z m -14.46518,-1.60106 c 1.68473,-1.99716 3.62855,-3.84647 5.07676,-5.96071 -1.50388,0.73495 -3.18719,3.27816 -4.4711,4.92131 -0.18842,0.0665 -1.12633,1.37182 -0.60566,1.0394 z m 16.19513,-0.63245 c 0.38738,-0.45627 -0.3951,0.18119 0,0 z m 0.31537,-0.36101 c 0.13605,-0.23926 -0.20061,0.0152 0,0 z m -17.48719,-0.49859 c 0.99331,-1.04417 -1.25898,-0.2171 0,0 z m 7.20158,-1.2354 c 0.72477,-0.8702 -0.49419,0.22365 0,0 z m -6.2493,-0.0361 c 0.0977,-0.24265 -0.29303,0.21746 0,0 z m 0.25291,-0.30795 c 2.03954,-2.38311 -1.1294,0.8554 0,0 z m 6.34944,-0.0548 c -0.13945,-0.13014 -0.093,0.13432 0,0 z m 0.54304,-0.70744 c -0.12701,0.0502 -0.0296,0.20243 0,0 z m 0.14621,-0.17326 c -0.18923,-0.0164 -0.2057,0.24276 0,0 z m -6.21652,-0.16045 c -0.14879,-0.035 0.0251,0.23192 0,0 z m 6.32536,0.0572 c -0.12605,-0.063 -0.0596,0.16931 0,0 z m 0.20748,-0.23567 c -0.37112,0.24791 0.0181,0.12466 0,0 z m -5.47326,-1.12951 c 1.20702,-1.45613 -1.08252,0.87394 0,0 z m 16.65812,-1.03508 c 1.5198,-1.41811 0.20465,-1.01864 0,0 z m -13.13362,-0.2458 c -0.11276,-0.13152 -0.0688,0.18272 0,0 z m 0.56547,-0.52506 c 0.74452,-0.83486 5.56423,-6.42512 2.75484,-3.7716 -0.42816,0.51036 -4.09227,4.70314 -2.75484,3.7716 z m -0.29595,-2.70562 c 0.4176,-0.23718 -0.32815,0.17059 0,0 z m 0.23834,-0.22529 c 0.60774,-0.83556 -0.39076,0.22015 0,0 z m 0.57737,-0.6736 c 0.32385,-0.54407 -0.6268,0.51059 0,0 z m 0.18637,-0.27599 c -0.22971,-0.0875 -0.0228,0.15169 0,0 z m 0.35125,-0.33734 c 0.40032,-0.67244 2.54549,-2.5755 1.94127,-2.43781 -0.32025,0.37407 -2.29709,2.44375 -1.94127,2.43781 z m 3.34025,-1.057 c -0.11991,-0.13234 -0.11381,0.20254 0,0 z"
       id="path3168"
       inkscape:connector-curvature="0"
       clip-path="url(#clipPath3962)"
       transform="translate(-155,1.4285714)" />
  </g>
</svg>
