<?xml version="1.0" encoding="UTF-8" standalone="no"?>
<!-- Created with Inkscape (http://www.inkscape.org/) -->

<svg
   xmlns:dc="http://purl.org/dc/elements/1.1/"
   xmlns:cc="http://creativecommons.org/ns#"
   xmlns:rdf="http://www.w3.org/1999/02/22-rdf-syntax-ns#"
   xmlns:svg="http://www.w3.org/2000/svg"
   xmlns="http://www.w3.org/2000/svg"
   xmlns:xlink="http://www.w3.org/1999/xlink"
   xmlns:sodipodi="http://sodipodi.sourceforge.net/DTD/sodipodi-0.dtd"
   xmlns:inkscape="http://www.inkscape.org/namespaces/inkscape"
   width="171.8504"
   height="171.8504"
   id="svg2"
   version="1.1"
   inkscape:version="0.48.4 r9939"
   sodipodi:docname="geek_1_3_37.svg"
   inkscape:export-filename="/home/svet/Dropbox/falanster/design/signes/geek_1_1_3_37.png"
   inkscape:export-xdpi="300"
   inkscape:export-ydpi="300">
  <defs
     id="defs4" />
  <sodipodi:namedview
     id="base"
     pagecolor="#ffffff"
     bordercolor="#666666"
     borderopacity="1.0"
     inkscape:pageopacity="0.0"
     inkscape:pageshadow="2"
     inkscape:zoom="2.8"
     inkscape:cx="83.887738"
     inkscape:cy="108.19543"
     inkscape:document-units="px"
     inkscape:current-layer="layer1"
     showgrid="false"
     fit-margin-top="0"
     fit-margin-left="0"
     fit-margin-right="0"
     fit-margin-bottom="0"
     inkscape:window-width="1301"
     inkscape:window-height="744"
     inkscape:window-x="65"
     inkscape:window-y="24"
     inkscape:window-maximized="1" />
  <metadata
     id="metadata7">
    <rdf:RDF>
      <cc:Work
         rdf:about="">
        <dc:format>image/svg+xml</dc:format>
        <dc:type
           rdf:resource="http://purl.org/dc/dcmitype/StillImage" />
        <dc:title></dc:title>
      </cc:Work>
    </rdf:RDF>
  </metadata>
  <g
     inkscape:label="Layer 1"
     inkscape:groupmode="layer"
     id="layer1"
     transform="translate(809.61871,-852.98764)">
    <path
       sodipodi:type="arc"
       style="fill:#ff2a7f;fill-opacity:1;fill-rule:nonzero;stroke:none"
       id="path2987"
       sodipodi:cx="-418.57144"
       sodipodi:cy="633.79077"
       sodipodi:rx="387.14285"
       sodipodi:ry="387.14285"
       d="m -31.428589,633.79077 c 0,213.8131 -173.329761,387.14283 -387.142851,387.14283 -213.8131,0 -387.14285,-173.32973 -387.14285,-387.14283 0,-213.81309 173.32975,-387.14285 387.14285,-387.14285 213.81309,0 387.142851,173.32976 387.142851,387.14285 z"
       transform="matrix(0.22194701,0,0,0.22194701,-630.79283,798.24487)" />
    <path
       sodipodi:type="arc"
       style="fill:none;stroke:none;stroke-width:0.42605752000000002;stroke-miterlimit:4;stroke-dasharray:1.27817252000000003, 1.27817252000000003;stroke-dashoffset:0"
       id="path2991"
       sodipodi:cx="32.857143"
       sodipodi:cy="92.207542"
       sodipodi:rx="55.357143"
       sodipodi:ry="55.357143"
       d="m 88.214287,92.207542 c 0,30.572908 -24.784238,55.357148 -55.357144,55.357148 C 2.2842373,147.56469 -22.5,122.78045 -22.5,92.207542 c 0,-30.572906 24.7842373,-55.357143 55.357143,-55.357143 30.572906,0 55.357144,24.784237 55.357144,55.357143 z"
       transform="matrix(1.1796109,0,0,1.1796109,-762.45216,830.14382)" />
    <path
       sodipodi:type="arc"
       style="fill:none;stroke:none;stroke-width:0.46126875000000001;stroke-miterlimit:4;stroke-dasharray:1.38380622000000009, 1.38380622000000009;stroke-dashoffset:0"
       id="path2991-3"
       sodipodi:cx="32.857143"
       sodipodi:cy="92.207542"
       sodipodi:rx="55.357143"
       sodipodi:ry="55.357143"
       d="m 88.214287,92.207542 c 0,30.572908 -24.784238,55.357148 -55.357144,55.357148 C 2.2842373,147.56469 -22.5,122.78045 -22.5,92.207542 c 0,-30.572906 24.7842373,-55.357143 55.357143,-55.357143 30.572906,0 55.357144,24.784237 55.357144,55.357143 z"
       transform="matrix(1.0836235,0,0,1.0836235,-759.29828,838.99458)" />
    <text
       xml:space="preserve"
       style="font-size:62.06788635000000198px;font-style:normal;font-variant:normal;font-weight:normal;font-stretch:normal;line-height:125%;letter-spacing:0px;word-spacing:0px;fill:#1a1a1a;fill-opacity:1;stroke:none;font-family:Ubuntu Mono;-inkscape-font-specification:Ubuntu Mono"
       x="-770.8114"
       y="956.33295"
       id="text3817"
       sodipodi:linespacing="125%"><tspan
         sodipodi:role="line"
         id="tspan3819"
         x="-770.8114"
         y="956.33295">гік</tspan></text>
    <text
       xml:space="preserve"
       style="font-size:13.60228539000000048px;font-style:normal;font-variant:normal;font-weight:normal;font-stretch:normal;line-height:125%;letter-spacing:0px;word-spacing:0px;fill:#4d4d4d;fill-opacity:1;stroke:none;font-family:Ubuntu Mono;-inkscape-font-specification:Ubuntu Mono"
       id="text3033"
       sodipodi:linespacing="125%"
       transform="translate(-5.8519327e-6,-3.8526978e-6)"><textPath
         xlink:href="#path3813"
         id="textPath3818"
         style="font-size:10px;fill:#4d4d4d">falanster.by</textPath></text>
    <path
       sodipodi:type="arc"
       style="fill:none;stroke:none"
       id="path3813"
       sodipodi:cx="313.65237"
       sodipodi:cy="85.482361"
       sodipodi:rx="51.51778"
       sodipodi:ry="51.51778"
       d="m 365.17015,85.482361 c 0,28.452489 -23.06529,51.517779 -51.51778,51.517779 -28.45248,0 -51.51778,-23.06529 -51.51778,-51.517779 0,-28.452485 23.0653,-51.51778 51.51778,-51.51778 28.45249,0 51.51778,23.065295 51.51778,51.51778 z"
       transform="matrix(-0.03446126,1.0714068,1.0714068,0.03446126,-804.39667,599.84293)" />
    <g
       id="g3026"
       transform="matrix(0.98922193,0,0,0.98922193,-7.9886047,12.520603)">
      <path
         sodipodi:nodetypes="cssssccsscsccc"
         d="m -712.3354,918.14495 c -1.42605,1.29871 -2.31733,2.16453 -3.99802,2.16453 -0.61117,0 -1.52791,0.10186 -1.52791,-1.29872 0,-2.59744 4.94023,-2.08814 4.94023,-6.03523 0,-1.6807 -0.76395,-1.96082 -1.62977,-1.96082 -1.06953,0 -3.15767,1.60431 -4.60918,2.64838 l 0.22918,0.53476 c 1.12047,-0.71302 2.80117,-1.80802 4.02349,-1.80802 0.38198,0 0.71303,0.15279 0.71303,0.68756 0,1.55337 -1.7571,2.06267 -2.54652,2.54651 -1.47697,0.91674 -2.90302,1.85895 -2.90302,3.53965 0,1.93535 0.94221,2.59744 2.31733,2.57198 2.67383,-0.0255 4.43093,-2.29186 5.34767,-3.10675 l -0.35651,-0.48383"
         style="font-size:25.46511459px;font-style:italic;font-variant:normal;font-weight:bold;font-stretch:normal;line-height:125%;letter-spacing:0px;word-spacing:0px;fill:#f2f2f2;fill-opacity:1;stroke:none;font-family:URW Chancery L;-inkscape-font-specification:URW Chancery L Bold Italic"
         id="path3014"
         inkscape:connector-curvature="0" />
      <path
         sodipodi:nodetypes="cscccssccsscccsscccccccccccccccccc"
         d="m -703.80021,917.91576 c -1.90988,1.65523 -3.13221,2.36825 -4.09988,2.36825 -0.63663,0 -1.1714,-0.4329 -1.34966,-1.09499 -0.10186,-0.40745 -0.12732,-0.68756 -0.12732,-1.42605 1.14593,-0.71302 1.90988,-1.24779 3.41232,-2.36826 1.37512,-1.04407 1.90989,-1.88442 1.90989,-3.03035 0,-0.89127 -0.56024,-1.42604 -1.45151,-1.42604 -0.56024,0 -0.96768,0.12732 -1.55338,0.45837 -0.96767,0.56023 -1.83348,1.24779 -2.36825,1.85895 -0.96767,1.1714 -1.83349,3.97256 -1.83349,6.03524 0,1.50244 0.78942,2.44465 2.08814,2.44465 1.50244,0 3.3614,-1.06954 5.37314,-3.08128 l 0,-0.73849 m -5.50047,-1.06954 c 0.43291,-2.72476 1.60431,-4.83837 2.69931,-4.83837 0.4329,0 0.71302,0.43291 0.71302,1.04407 0,1.27326 -0.68756,2.03721 -3.41233,3.7943 m 4.58372,-7.89418 c 0.56024,-0.53477 0.63663,-0.61116 0.84035,-0.76395 l 0.81489,-0.63663 c -0.30558,-0.48384 -0.40744,-0.6621 -0.5093,-0.86582 -0.0764,-0.15279 -0.10187,-0.22918 -0.35652,-0.86581 -0.10186,0.0764 -0.20372,0.15279 -0.35651,0.28012 -0.4329,0.35651 -0.68756,0.56023 -0.78942,0.63662 -0.17825,0.12733 -0.30558,0.20373 -0.61116,0.43291 0.20372,0.5857 0.40744,0.99314 0.96767,1.78256 m -3.38686,0 0.84035,-0.76395 c 0.15279,-0.10186 0.25466,-0.17826 0.81489,-0.63663 -0.28012,-0.48384 -0.38198,-0.6621 -0.48384,-0.86582 -0.0764,-0.15279 -0.10186,-0.22918 -0.38198,-0.86581 -0.12732,0.10186 -0.22918,0.20372 -0.35651,0.28012 -0.66209,0.56023 -0.73849,0.61116 -1.40058,1.06953 0.20372,0.5857 0.40744,0.94221 0.96767,1.78256"
         style="font-size:25.46511459px;font-style:italic;font-variant:normal;font-weight:bold;font-stretch:normal;line-height:125%;letter-spacing:0px;word-spacing:0px;fill:#f2f2f2;fill-opacity:1;stroke:none;font-family:URW Chancery L;-inkscape-font-specification:URW Chancery L Bold Italic"
         id="path3016"
         inkscape:connector-curvature="0" />
      <path
         sodipodi:nodetypes="cccsccsscccsscccsssccccsscsc"
         d="m -704.26256,926.82855 1.64676,2.42202 c 0.98398,-2.60417 0.84548,-2.11322 2.27487,-7.76972 0.5093,0.10186 0.78942,0.12732 1.22232,0.12732 1.12047,0 1.73163,-0.22919 2.75023,-1.04407 1.29872,-0.99314 1.78256,-1.45151 2.11361,-1.90988 0.89128,-1.29872 1.70616,-4.02349 1.70616,-5.67872 0,-1.22233 -0.53477,-2.03721 -1.37511,-2.03721 -0.61117,0 -1.47698,0.38198 -2.52105,1.14593 l -2.08814,1.50244 c 0.0764,-0.28012 0.12732,-0.56023 0.17826,-0.71302 0.22918,-0.96768 0.35651,-1.50245 0.35651,-1.60431 0,-0.15279 -0.17826,-0.33104 -0.35651,-0.33104 -0.25466,0 -2.31733,1.095 -4.20175,2.21546 l -0.15279,0.6621 c 0.33105,-0.12733 0.63663,-0.25466 0.73849,-0.30559 0.73849,-0.33104 0.89128,-0.38197 1.095,-0.38197 0.30558,0 0.48384,0.25465 0.48384,0.71302 0,0.91674 -1.18066,6.60172 -2.95396,12.93628 -0.0825,0.29472 -0.91674,0.0509 -0.91674,0.0509 m 4.35453,-7.10477 c 0.35651,-1.70616 0.68756,-3.10674 0.94221,-4.20174 0.0255,-0.12733 0.10186,-0.45837 0.20372,-0.91675 2.11361,-1.5279 2.87756,-1.96081 3.53965,-1.96081 0.50931,0 0.84035,0.56023 0.84035,1.40058 0,1.14593 -0.35651,2.57198 -0.99314,3.97256 -0.68755,1.50244 -1.55337,2.26639 -2.59744,2.26639 -0.63663,0 -1.32418,-0.20372 -1.93535,-0.56023"
         style="font-size:25.46511459px;font-style:italic;font-variant:normal;font-weight:bold;font-stretch:normal;line-height:125%;letter-spacing:0px;word-spacing:0px;fill:#f2f2f2;fill-opacity:1;stroke:none;font-family:URW Chancery L;-inkscape-font-specification:URW Chancery L Bold Italic"
         id="path3018"
         inkscape:connector-curvature="0" />
      <path
         sodipodi:nodetypes="ccssccsscccsccscccc"
         d="m -682.733,911.90599 c -0.15279,0.5857 -0.81488,3.25954 -1.65523,6.77372 -0.20372,0.81489 -0.35651,1.73163 -0.35651,2.19 0,0.33105 0.20372,0.5857 0.45837,0.5857 0.5093,0 2.92849,-1.42605 4.66011,-2.72477 l 0.17826,-0.76395 c -1.98628,1.17139 -2.64837,1.52791 -2.92849,1.52791 -0.17825,0 -0.28011,-0.20372 -0.28011,-0.61117 0,-1.29872 0.94221,-4.81291 2.0372,-8.04697 -2.90302,0 -4.53279,0.30558 -5.16941,1.98628 0,0 -2.47012,6.90104 -2.59745,6.67186 -0.38197,0.63662 -0.96767,0.89128 -2.06267,0.89128 -0.43291,0 -0.43291,0 -1.88442,-0.0764 l -0.96767,1.24779 1.095,0 c 1.98627,0 3.23407,-0.40744 4.17628,-1.37512 0.40744,-0.28011 0.78942,-0.76395 1.04407,-1.47697 l 1.47697,-4.02349 c 0.6621,-1.85895 0.76396,-2.64837 2.7757,-2.7757"
         style="font-size:25.46511459px;font-style:italic;font-variant:normal;font-weight:bold;font-stretch:normal;line-height:125%;letter-spacing:0px;word-spacing:0px;fill:#f2f2f2;fill-opacity:1;stroke:none;font-family:URW Chancery L;-inkscape-font-specification:URW Chancery L Bold Italic"
         id="path3020"
         inkscape:connector-curvature="0" />
    </g>
  </g>
</svg>
