<?xml version="1.0" encoding="UTF-8" standalone="no"?>
<!-- Created with Inkscape (http://www.inkscape.org/) -->

<svg
   xmlns:dc="http://purl.org/dc/elements/1.1/"
   xmlns:cc="http://creativecommons.org/ns#"
   xmlns:rdf="http://www.w3.org/1999/02/22-rdf-syntax-ns#"
   xmlns:svg="http://www.w3.org/2000/svg"
   xmlns="http://www.w3.org/2000/svg"
   xmlns:xlink="http://www.w3.org/1999/xlink"
   xmlns:sodipodi="http://sodipodi.sourceforge.net/DTD/sodipodi-0.dtd"
   xmlns:inkscape="http://www.inkscape.org/namespaces/inkscape"
   width="171.8504"
   height="171.8504"
   id="svg2"
   version="1.1"
   inkscape:version="0.48.4 r9939"
   sodipodi:docname="geek_5_37.svg"
   inkscape:export-filename="/home/svet/Dropbox/falanster/design/signes/geek_3_2_37.png"
   inkscape:export-xdpi="300"
   inkscape:export-ydpi="300">
  <defs
     id="defs4">
    <path
       sodipodi:type="arc"
       style="fill:none;stroke:none"
       id="path3813"
       sodipodi:cx="313.65237"
       sodipodi:cy="85.482361"
       sodipodi:rx="51.51778"
       sodipodi:ry="51.51778"
       d="m 365.17015,85.482361 a 51.51778,51.51778 0 1 1 -103.03556,0 51.51778,51.51778 0 1 1 103.03556,0 z"
       transform="matrix(-0.03446126,1.0714068,1.0714068,0.03446126,-804.39667,599.84293)" />
  </defs>
  <sodipodi:namedview
     id="base"
     pagecolor="#ffffff"
     bordercolor="#666666"
     borderopacity="1.0"
     inkscape:pageopacity="0.0"
     inkscape:pageshadow="2"
     inkscape:zoom="2.8"
     inkscape:cx="122.28777"
     inkscape:cy="73.613655"
     inkscape:document-units="px"
     inkscape:current-layer="layer1"
     showgrid="false"
     fit-margin-top="0"
     fit-margin-left="0"
     fit-margin-right="0"
     fit-margin-bottom="0"
     inkscape:window-width="1301"
     inkscape:window-height="744"
     inkscape:window-x="65"
     inkscape:window-y="24"
     inkscape:window-maximized="1" />
  <metadata
     id="metadata7">
    <rdf:RDF>
      <cc:Work
         rdf:about="">
        <dc:format>image/svg+xml</dc:format>
        <dc:type
           rdf:resource="http://purl.org/dc/dcmitype/StillImage" />
        <dc:title></dc:title>
      </cc:Work>
    </rdf:RDF>
  </metadata>
  <g
     inkscape:label="Layer 1"
     inkscape:groupmode="layer"
     id="layer1"
     transform="translate(809.61871,-852.98764)">
    <path
       sodipodi:type="arc"
       style="fill:#333333;fill-opacity:1;fill-rule:nonzero;stroke:none"
       id="path2987"
       sodipodi:cx="-418.57144"
       sodipodi:cy="633.79077"
       sodipodi:rx="387.14285"
       sodipodi:ry="387.14285"
       d="m -31.428589,633.79077 c 0,213.8131 -173.329761,387.14283 -387.142851,387.14283 -213.8131,0 -387.14285,-173.32973 -387.14285,-387.14283 0,-213.81309 173.32975,-387.14285 387.14285,-387.14285 213.81309,0 387.142851,173.32976 387.142851,387.14285 z"
       transform="matrix(0.22194701,0,0,0.22194701,-630.79283,798.24487)" />
    <path
       sodipodi:type="arc"
       style="fill:none;stroke:none;stroke-width:0.42605752000000002;stroke-miterlimit:4;stroke-dasharray:1.27817252000000003, 1.27817252000000003;stroke-dashoffset:0"
       id="path2991"
       sodipodi:cx="32.857143"
       sodipodi:cy="92.207542"
       sodipodi:rx="55.357143"
       sodipodi:ry="55.357143"
       d="m 88.214287,92.207542 c 0,30.572908 -24.784238,55.357148 -55.357144,55.357148 C 2.2842373,147.56469 -22.5,122.78045 -22.5,92.207542 c 0,-30.572906 24.7842373,-55.357143 55.357143,-55.357143 30.572906,0 55.357144,24.784237 55.357144,55.357143 z"
       transform="matrix(1.1796109,0,0,1.1796109,-762.45216,830.14382)" />
    <path
       sodipodi:type="arc"
       style="fill:none;stroke:none;stroke-width:0.46126875000000001;stroke-miterlimit:4;stroke-dasharray:1.38380622000000009, 1.38380622000000009;stroke-dashoffset:0"
       id="path2991-3"
       sodipodi:cx="32.857143"
       sodipodi:cy="92.207542"
       sodipodi:rx="55.357143"
       sodipodi:ry="55.357143"
       d="m 88.214287,92.207542 c 0,30.572908 -24.784238,55.357148 -55.357144,55.357148 C 2.2842373,147.56469 -22.5,122.78045 -22.5,92.207542 c 0,-30.572906 24.7842373,-55.357143 55.357143,-55.357143 30.572906,0 55.357144,24.784237 55.357144,55.357143 z"
       transform="matrix(1.0836235,0,0,1.0836235,-759.29828,838.99458)" />
    <g
       id="g3090"
       transform="translate(2.7142857,0)">
      <path
         style="fill:#55d400;fill-opacity:1;stroke:none"
         d="m -751.0524,899.42158 c 5.07191,0 9.15507,3.81797 9.15507,8.56048 l 0,31.09198 c 0,4.7425 -4.08316,8.56048 -9.15507,8.56048 -5.07191,0 -9.15507,-3.81798 -9.15507,-8.56048 l 0,-31.09198 c 0,-4.74251 4.08316,-8.56048 9.15507,-8.56048 z"
         id="rect2985-79-1-9-3-2-4-9"
         inkscape:connector-curvature="0" />
      <path
         style="fill:#55d400;fill-opacity:1;stroke:none"
         d="m -758.52052,938.61836 c 0,-5.07191 3.81797,-9.15507 8.56048,-9.15507 l 24.08223,0 c 4.74251,0 8.56048,4.08316 8.56048,9.15507 0,5.07191 -3.81797,9.15508 -8.56048,9.15508 l -24.08223,0 c -4.74251,0 -8.56048,-4.08317 -8.56048,-9.15508 z"
         id="rect2985-79-4-5-5-7-5-5-2"
         inkscape:connector-curvature="0" />
      <path
         style="fill:#55d400;fill-opacity:1;stroke:none"
         d="m -699.92808,905.62165 c 5.07191,0 9.15507,3.81798 9.15507,8.56049 l 0,32.76403 c 0,4.74251 -4.08316,8.56048 -9.15507,8.56048 -5.07191,0 -9.15507,-3.81797 -9.15507,-8.56048 l 0,-32.76403 c 0,-4.74251 4.08316,-8.56049 9.15507,-8.56049 z"
         id="rect2985-79-7-0-7-2-4-6-9"
         inkscape:connector-curvature="0" />
      <path
         style="fill:#55d400;fill-opacity:1;stroke:none"
         d="m -725.26935,912.61794 c 5.07192,0 9.15508,3.81798 9.15508,8.56048 l 0,53.38242 c 0,4.74251 -4.08316,8.56049 -9.15508,8.56049 -5.07191,0 -9.15507,-3.81798 -9.15507,-8.56049 l 0,-53.38242 c 0,-4.7425 4.08316,-8.56048 9.15507,-8.56048 z"
         id="rect2985-79-5-8-8-2-7-1-3"
         inkscape:connector-curvature="0" />
      <path
         sodipodi:nodetypes="ssscs"
         inkscape:connector-curvature="0"
         id="path4099-90-1-7-8-9-1"
         d="m -697.80767,906.01544 c 0,1.35024 -0.99659,2.44483 -2.22589,2.44483 -1.22935,0 -2.22591,-1.09459 -2.22591,-2.44483 0,-1.35025 0.959,-1.60556 2.22591,-4.26934 1.20701,2.62729 2.22589,2.91909 2.22589,4.26934 z"
         style="fill:#55d400;fill-opacity:1;stroke:none" />
      <path
         sodipodi:nodetypes="ssscs"
         inkscape:connector-curvature="0"
         id="path4099-4-2-4-7-7-5-3"
         d="m -691.96965,910.80947 c -0.96498,0.94444 -2.44433,0.99782 -3.30419,0.11927 -0.85987,-0.87859 -0.77464,-2.35642 0.19034,-3.30086 0.96501,-0.94444 1.81826,-0.43765 4.60812,-1.39541 -1.03339,2.70029 -0.52927,3.63257 -1.49427,4.577 z"
         style="fill:#55d400;fill-opacity:1;stroke:none" />
      <path
         sodipodi:nodetypes="ssscs"
         inkscape:connector-curvature="0"
         id="path4099-8-7-9-1-0-5-6"
         d="m -705.4813,908.08546 c 1.07567,0.81614 1.34531,2.27168 0.60228,3.25101 -0.74305,0.97937 -2.2174,1.11168 -3.29311,0.29555 -1.07567,-0.81613 -0.69944,-1.73445 -2.05578,-4.35382 2.8226,0.62645 3.67092,-0.009 4.74661,0.80726 z"
         style="fill:#55d400;fill-opacity:1;stroke:none" />
      <path
         sodipodi:nodetypes="ssscs"
         inkscape:connector-curvature="0"
         id="path4099-1-5-8-3-3-1-6"
         d="m -691.26983,919.48394 c -1.35025,0 -2.44485,-0.99659 -2.44485,-2.22589 0,-1.22935 1.0946,-2.22591 2.44485,-2.22591 1.35024,0 1.60553,0.95899 4.26932,2.22591 -2.62729,1.20701 -2.91908,2.22589 -4.26932,2.22589 z"
         style="fill:#55d400;fill-opacity:1;stroke:none" />
      <path
         sodipodi:nodetypes="ssscs"
         inkscape:connector-curvature="0"
         id="path4099-9-1-6-1-3-2-2"
         d="m -749.09186,900.21381 c 0,1.35025 -0.99659,2.44484 -2.22589,2.44484 -1.22936,0 -2.22592,-1.09459 -2.22592,-2.44484 0,-1.35024 0.959,-1.60556 2.22592,-4.26934 1.207,2.62729 2.22589,2.9191 2.22589,4.26934 z"
         style="fill:#55d400;fill-opacity:1;stroke:none" />
      <path
         sodipodi:nodetypes="ssscs"
         inkscape:connector-curvature="0"
         id="path4099-6-9-8-7-3-7-8"
         d="m -722.77375,913.20303 c 0,1.35024 -0.99658,2.44483 -2.22589,2.44483 -1.22935,0 -2.22591,-1.09459 -2.22591,-2.44483 0,-1.35024 0.95899,-1.60556 2.22591,-4.26934 1.20701,2.62729 2.22589,2.9191 2.22589,4.26934 z"
         style="fill:#55d400;fill-opacity:1;stroke:none" />
      <path
         sodipodi:nodetypes="ssscs"
         inkscape:connector-curvature="0"
         id="path4099-2-6-6-4-4-4-3"
         d="m -743.3665,903.78504 c -0.82047,1.07236 -2.2771,1.33608 -3.25339,0.58908 -0.97634,-0.74703 -1.10267,-2.22192 -0.28217,-3.29428 0.82047,-1.07235 1.73725,-0.69238 4.36209,-2.03808 -0.63791,2.82003 -0.006,3.67092 -0.82653,4.74328 z"
         style="fill:#55d400;fill-opacity:1;stroke:none" />
      <path
         sodipodi:nodetypes="ssscs"
         inkscape:connector-curvature="0"
         id="path4099-0-7-6-1-9-4-4"
         d="m -756.0866,901.1179 c 0.96423,0.9452 1.04828,2.42312 0.18776,3.30099 -0.86056,0.87792 -2.33985,0.82336 -3.30411,-0.12184 -0.96424,-0.94519 -0.47525,-1.80876 -1.49068,-4.57819 2.72115,0.97719 3.64277,0.45385 4.60703,1.39904 z"
         style="fill:#55d400;fill-opacity:1;stroke:none" />
      <path
         sodipodi:nodetypes="ssscs"
         inkscape:connector-curvature="0"
         id="path4099-18-0-6-8-5-3-0"
         d="m -729.35975,913.9712 c 0.69567,1.15723 0.40552,2.60882 -0.64808,3.24219 -1.05361,0.63339 -2.47168,0.20873 -3.16737,-0.9485 -0.69567,-1.15724 -0.005,-1.87016 -0.29194,-4.80591 2.38812,1.62985 3.41169,1.35498 4.10739,2.51222 z"
         style="fill:#55d400;fill-opacity:1;stroke:none" />
      <path
         sodipodi:nodetypes="ssscs"
         inkscape:connector-curvature="0"
         id="path4099-92-9-8-5-3-2-5"
         d="m -759.31875,908.39044 c 1.35025,0 2.44483,0.99658 2.44483,2.22588 0,1.22935 -1.09458,2.22592 -2.44483,2.22592 -1.35025,0 -1.60557,-0.959 -4.26935,-2.22592 2.62729,-1.207 2.9191,-2.22588 4.26935,-2.22588 z"
         style="fill:#55d400;fill-opacity:1;stroke:none" />
      <path
         sodipodi:nodetypes="ssscs"
         inkscape:connector-curvature="0"
         id="path4099-183-5-5-0-7-4-1"
         d="m -759.31391,917.27949 c 1.35024,0 2.44483,0.99659 2.44483,2.22589 0,1.22935 -1.09459,2.22592 -2.44483,2.22592 -1.35025,0 -1.60558,-0.959 -4.26936,-2.22592 2.62729,-1.207 2.91911,-2.22589 4.26936,-2.22589 z"
         style="fill:#55d400;fill-opacity:1;stroke:none" />
      <path
         sodipodi:nodetypes="ssscs"
         inkscape:connector-curvature="0"
         id="path4099-99-0-6-1-7-0-9"
         d="m -733.95351,919.44972 c 1.35025,0 2.44484,0.99658 2.44484,2.22589 0,1.22935 -1.09459,2.22591 -2.44484,2.22591 -1.35025,0 -1.60557,-0.959 -4.26935,-2.22591 2.62729,-1.20701 2.9191,-2.22589 4.26935,-2.22589 z"
         style="fill:#55d400;fill-opacity:1;stroke:none" />
      <path
         style="fill:#55d400;fill-opacity:1;stroke:none"
         d="m -726.19186,946.38732 c 0,-5.07191 3.81798,-9.15507 8.56048,-9.15507 l 15.57443,0 c 4.74251,0 8.56049,4.08316 8.56049,9.15507 0,5.07191 -3.81798,9.15508 -8.56049,9.15508 l -15.57443,0 c -4.7425,0 -8.56048,-4.08317 -8.56048,-9.15508 z"
         id="rect2985-79-4-5-6-7-6-7-1-8"
         inkscape:connector-curvature="0" />
    </g>
    <text
       xml:space="preserve"
       style="font-size:13.60228539px;font-style:normal;font-variant:normal;font-weight:normal;font-stretch:normal;line-height:125%;letter-spacing:0px;word-spacing:0px;fill:#b3b3b3;fill-opacity:1;stroke:none;font-family:Ubuntu Mono;-inkscape-font-specification:Ubuntu Mono"
       id="text3033"
       sodipodi:linespacing="125%"
       transform="matrix(0.14291186,0.98973543,-0.98973543,0.14291186,309.56198,1520.4686)"><textPath
         xlink:href="#path3813"
         id="textPath3818"
         style="font-size:10px;fill:#b3b3b3">it.falanster.by</textPath></text>
  </g>
</svg>
