<?xml version="1.0" encoding="UTF-8" standalone="no"?>
<!-- Created with Inkscape (http://www.inkscape.org/) -->

<svg
   xmlns:dc="http://purl.org/dc/elements/1.1/"
   xmlns:cc="http://creativecommons.org/ns#"
   xmlns:rdf="http://www.w3.org/1999/02/22-rdf-syntax-ns#"
   xmlns:svg="http://www.w3.org/2000/svg"
   xmlns="http://www.w3.org/2000/svg"
   xmlns:xlink="http://www.w3.org/1999/xlink"
   xmlns:sodipodi="http://sodipodi.sourceforge.net/DTD/sodipodi-0.dtd"
   xmlns:inkscape="http://www.inkscape.org/namespaces/inkscape"
   width="171.8504"
   height="171.8504"
   id="svg2"
   version="1.1"
   inkscape:version="0.48.4 r9939"
   sodipodi:docname="geek_3_37.svg"
   inkscape:export-filename="/home/svet/Dropbox/falanster/design/signes/geek_3_37_for_print.png"
   inkscape:export-xdpi="300"
   inkscape:export-ydpi="300">
  <defs
     id="defs4">
    <path
       sodipodi:type="arc"
       style="fill:none;stroke:none"
       id="path3813"
       sodipodi:cx="313.65237"
       sodipodi:cy="85.482361"
       sodipodi:rx="51.51778"
       sodipodi:ry="51.51778"
       d="m 365.17015,85.482361 a 51.51778,51.51778 0 1 1 -103.03556,0 51.51778,51.51778 0 1 1 103.03556,0 z"
       transform="matrix(-0.03446126,1.0714068,1.0714068,0.03446126,-804.39667,599.84293)" />
  </defs>
  <sodipodi:namedview
     id="base"
     pagecolor="#ffffff"
     bordercolor="#666666"
     borderopacity="1.0"
     inkscape:pageopacity="0.0"
     inkscape:pageshadow="2"
     inkscape:zoom="2.8"
     inkscape:cx="93.71634"
     inkscape:cy="87.899369"
     inkscape:document-units="px"
     inkscape:current-layer="layer1"
     showgrid="false"
     fit-margin-top="0"
     fit-margin-left="0"
     fit-margin-right="0"
     fit-margin-bottom="0"
     inkscape:window-width="1301"
     inkscape:window-height="744"
     inkscape:window-x="65"
     inkscape:window-y="24"
     inkscape:window-maximized="1" />
  <metadata
     id="metadata7">
    <rdf:RDF>
      <cc:Work
         rdf:about="">
        <dc:format>image/svg+xml</dc:format>
        <dc:type
           rdf:resource="http://purl.org/dc/dcmitype/StillImage" />
        <dc:title></dc:title>
      </cc:Work>
    </rdf:RDF>
  </metadata>
  <g
     inkscape:label="Layer 1"
     inkscape:groupmode="layer"
     id="layer1"
     transform="translate(809.61871,-852.98764)">
    <path
       sodipodi:type="arc"
       style="fill:#333333;fill-opacity:1;fill-rule:nonzero;stroke:none"
       id="path2987"
       sodipodi:cx="-418.57144"
       sodipodi:cy="633.79077"
       sodipodi:rx="387.14285"
       sodipodi:ry="387.14285"
       d="m -31.428589,633.79077 c 0,213.8131 -173.329761,387.14283 -387.142851,387.14283 -213.8131,0 -387.14285,-173.32973 -387.14285,-387.14283 0,-213.81309 173.32975,-387.14285 387.14285,-387.14285 213.81309,0 387.142851,173.32976 387.142851,387.14285 z"
       transform="matrix(0.22194701,0,0,0.22194701,-630.79283,798.24487)" />
    <path
       sodipodi:type="arc"
       style="fill:none;stroke:none;stroke-width:0.42605752000000002;stroke-miterlimit:4;stroke-dasharray:1.27817252000000003, 1.27817252000000003;stroke-dashoffset:0"
       id="path2991"
       sodipodi:cx="32.857143"
       sodipodi:cy="92.207542"
       sodipodi:rx="55.357143"
       sodipodi:ry="55.357143"
       d="m 88.214287,92.207542 c 0,30.572908 -24.784238,55.357148 -55.357144,55.357148 C 2.2842373,147.56469 -22.5,122.78045 -22.5,92.207542 c 0,-30.572906 24.7842373,-55.357143 55.357143,-55.357143 30.572906,0 55.357144,24.784237 55.357144,55.357143 z"
       transform="matrix(1.1796109,0,0,1.1796109,-762.45216,830.14382)" />
    <path
       sodipodi:type="arc"
       style="fill:none;stroke:none;stroke-width:0.46126875000000001;stroke-miterlimit:4;stroke-dasharray:1.38380622000000009, 1.38380622000000009;stroke-dashoffset:0"
       id="path2991-3"
       sodipodi:cx="32.857143"
       sodipodi:cy="92.207542"
       sodipodi:rx="55.357143"
       sodipodi:ry="55.357143"
       d="m 88.214287,92.207542 c 0,30.572908 -24.784238,55.357148 -55.357144,55.357148 C 2.2842373,147.56469 -22.5,122.78045 -22.5,92.207542 c 0,-30.572906 24.7842373,-55.357143 55.357143,-55.357143 30.572906,0 55.357144,24.784237 55.357144,55.357143 z"
       transform="matrix(1.0836235,0,0,1.0836235,-759.29828,838.99458)" />
    <g
       id="g3136"
       transform="matrix(0.49457043,0,0,0.49457043,-185.30921,493.2003)">
      <g
         transform="matrix(0.23511946,0,0,0.23511946,-1052.1374,735.38838)"
         id="g3306">
        <path
           inkscape:connector-curvature="0"
           id="rect3855-0-5-9-2-1-7-5-2"
           d="m 370.80783,776.70599 40.13075,0 0,221.38501 -40.13075,0 z"
           style="fill:#55d400;fill-opacity:1;stroke:none"
           transform="matrix(0.8622694,0.50644988,-0.46018637,0.88782234,0,0)" />
        <path
           inkscape:connector-curvature="0"
           id="rect3855-5-7-4-9-6-8-0-6"
           d="m -842.52856,489.41898 40.13075,0 0,221.38501 -40.13075,0 z"
           style="fill:#55d400;fill-opacity:1;stroke:none"
           transform="matrix(0.65563803,-0.75507534,0.78866003,0.61482954,0,0)" />
        <path
           inkscape:connector-curvature="0"
           id="rect2985-79-1-9-3-2-4-9"
           d="m -307.92134,289.38184 c 30.91524,0 55.80369,23.27203 55.80369,52.17945 l 0,189.51756 c 0,28.90741 -24.88845,52.17945 -55.80369,52.17945 -30.91525,0 -55.8037,-23.27204 -55.8037,-52.17945 l 0,-189.51756 c 0,-28.90742 24.88845,-52.17945 55.8037,-52.17945 z"
           style="fill:#55d400;fill-opacity:1;stroke:none" />
        <path
           inkscape:connector-curvature="0"
           id="path3787-9-0-6-9-3-7-0"
           d="m 612.14286,645.2193 c 0,23.27486 -18.868,42.14286 -42.14286,42.14286 -23.27486,0 -42.14286,-18.868 -42.14286,-42.14286 0,-23.27486 18.868,-42.14286 42.14286,-42.14286 23.27486,0 42.14286,18.868 42.14286,42.14286 z"
           style="fill:#55d400;fill-opacity:1;stroke:none"
           transform="matrix(1.3843393,0,0,1.3843393,-1108.3568,35.892234)" />
        <path
           inkscape:connector-curvature="0"
           id="path3787-3-9-6-4-2-8-3-1"
           d="m 612.14286,645.2193 c 0,23.27486 -18.868,42.14286 -42.14286,42.14286 -23.27486,0 -42.14286,-18.868 -42.14286,-42.14286 0,-23.27486 18.868,-42.14286 42.14286,-42.14286 23.27486,0 42.14286,18.868 42.14286,42.14286 z"
           style="fill:#55d400;fill-opacity:1;stroke:none"
           transform="matrix(1.3843393,0,0,1.3843393,-946.96479,28.911094)" />
        <path
           inkscape:connector-curvature="0"
           id="path3787-5-3-8-0-7-2-9-2"
           d="m 612.14286,645.2193 c 0,23.27486 -18.868,42.14286 -42.14286,42.14286 -23.27486,0 -42.14286,-18.868 -42.14286,-42.14286 0,-23.27486 18.868,-42.14286 42.14286,-42.14286 23.27486,0 42.14286,18.868 42.14286,42.14286 z"
           style="fill:#55d400;fill-opacity:1;stroke:none"
           transform="matrix(1.3843393,0,0,1.3843393,-786.31519,-46.060816)" />
        <path
           inkscape:connector-curvature="0"
           id="path3787-53-7-7-7-4-1-3-3"
           d="m 612.14286,645.2193 c 0,23.27486 -18.868,42.14286 -42.14286,42.14286 -23.27486,0 -42.14286,-18.868 -42.14286,-42.14286 0,-23.27486 18.868,-42.14286 42.14286,-42.14286 23.27486,0 42.14286,18.868 42.14286,42.14286 z"
           style="fill:#55d400;fill-opacity:1;stroke:none"
           transform="matrix(1.3843393,0,0,1.3843393,-1041.1174,184.21432)" />
        <path
           inkscape:connector-curvature="0"
           id="path3787-4-1-5-8-2-6-8-9"
           d="m 612.14286,645.2193 c 0,23.27486 -18.868,42.14286 -42.14286,42.14286 -23.27486,0 -42.14286,-18.868 -42.14286,-42.14286 0,-23.27486 18.868,-42.14286 42.14286,-42.14286 23.27486,0 42.14286,18.868 42.14286,42.14286 z"
           style="fill:#55d400;fill-opacity:1;stroke:none"
           transform="matrix(1.3843393,0,0,1.3843393,-922.17289,206.224)" />
        <path
           inkscape:connector-curvature="0"
           id="rect3855-5-71-7-0-5-9-6"
           d="m 363.19464,648.8006 40.13075,0 0,221.38501 -40.13075,0 z"
           style="fill:#55d400;fill-opacity:1;stroke:none"
           transform="matrix(0.70852623,0.70568447,-0.66726536,0.74482007,0,0)" />
        <path
           inkscape:connector-curvature="0"
           id="rect3855-8-1-4-7-1-5-2-2"
           d="m -705.3681,694.23499 40.13075,0 0,221.38501 -40.13075,0 z"
           style="fill:#55d400;fill-opacity:1;stroke:none"
           transform="matrix(0.92669399,-0.37581677,0.4242518,0.90554426,0,0)" />
        <path
           inkscape:connector-curvature="0"
           id="rect3855-6-6-5-6-8-6-4-4"
           d="m -766.12927,223.99118 40.13075,0 0,221.38501 -40.13075,0 z"
           style="fill:#55d400;fill-opacity:1;stroke:none"
           transform="matrix(0.49431547,-0.86928259,0.89418464,0.44769836,0,0)" />
        <path
           inkscape:connector-curvature="0"
           id="rect3855-89-9-0-5-6-8-6-3"
           d="m -92.375557,703.36139 40.130753,0 0,221.38501 -40.130753,0 z"
           style="fill:#55d400;fill-opacity:1;stroke:none"
           transform="matrix(0.98898489,0.14801652,-0.09555887,0.99542378,0,0)" />
        <path
           inkscape:connector-curvature="0"
           id="rect2985-79-4-5-5-7-5-5-2"
           d="m -528.30135,-353.44244 c 30.91525,0 55.80369,23.27203 55.80369,52.17945 l 0,146.79044 c 0,28.90742 -24.88844,52.17946 -55.80369,52.17946 -30.91524,0 -55.80369,-23.27204 -55.80369,-52.17946 l 0,-146.79044 c 0,-28.90742 24.88845,-52.17945 55.80369,-52.17945 z"
           style="fill:#55d400;fill-opacity:1;stroke:none"
           transform="matrix(0,-1,1,0,0,0)" />
        <path
           inkscape:connector-curvature="0"
           id="rect2985-79-7-0-7-2-4-6-9"
           d="m 3.7010498,327.17371 c 30.9152452,0 55.8036922,23.27203 55.8036922,52.17945 l 0,199.70936 c 0,28.90742 -24.888447,52.17945 -55.8036922,52.17945 -30.9152448,0 -55.8036918,-23.27203 -55.8036918,-52.17945 l 0,-199.70936 c 0,-28.90742 24.888447,-52.17945 55.8036918,-52.17945 z"
           style="fill:#55d400;fill-opacity:1;stroke:none" />
        <path
           inkscape:connector-curvature="0"
           id="rect2985-79-5-8-8-2-7-1-3"
           d="m -150.76371,369.81876 c 30.91525,0 55.803696,23.27203 55.803696,52.17945 l 0,325.38639 c 0,28.90742 -24.888446,52.17946 -55.803696,52.17946 -30.91524,0 -55.80369,-23.27204 -55.80369,-52.17946 l 0,-325.38639 c 0,-28.90742 24.88845,-52.17945 55.80369,-52.17945 z"
           style="fill:#55d400;fill-opacity:1;stroke:none" />
        <path
           inkscape:connector-curvature="0"
           id="path3787-4-1-7-8-5-2-7-8-5"
           d="m 612.14286,645.2193 c 0,23.27486 -18.868,42.14286 -42.14286,42.14286 -23.27486,0 -42.14286,-18.868 -42.14286,-42.14286 0,-23.27486 18.868,-42.14286 42.14286,-42.14286 23.27486,0 42.14286,18.868 42.14286,42.14286 z"
           style="fill:#55d400;fill-opacity:1;stroke:none"
           transform="matrix(1.3843393,0,0,1.3843393,-784.50073,151.13296)" />
        <path
           style="fill:#55d400;fill-opacity:1;stroke:none"
           d="m 16.625754,329.57398 c 0,8.23026 -6.07457,14.9022 -13.5676302,14.9022 -7.49334,0 -13.5678098,-6.67194 -13.5678098,-14.9022 0,-8.23027 5.8454698,-9.78653 13.5678098,-26.02326 7.3571602,16.01432 13.5676302,17.79299 13.5676302,26.02326 z"
           id="path4099-90-1-7-8-9-1"
           inkscape:connector-curvature="0"
           sodipodi:nodetypes="ssscs" />
        <path
           style="fill:#55d400;fill-opacity:1;stroke:none"
           d="m 52.210724,358.79545 c -5.8819,5.75672 -14.89911,6.08209 -20.14028,0.72698 -5.24127,-5.35532 -4.72173,-14.3633 1.16018,-20.12001 5.88209,-5.7567 11.08299,-2.66765 28.08825,-8.50556 -6.29888,16.45929 -3.22605,22.14189 -9.10815,27.89859 z"
           id="path4099-4-2-4-7-7-5-3"
           inkscape:connector-curvature="0"
           sodipodi:nodetypes="ssscs" />
        <path
           style="fill:#55d400;fill-opacity:1;stroke:none"
           d="m -30.14795,342.19157 c 6.55664,4.97464 8.2002,13.84674 3.67113,19.81614 -4.52916,5.96963 -13.51593,6.77612 -20.07276,1.80149 -6.55664,-4.97465 -4.26335,-10.57213 -12.5308,-26.5382 17.20486,3.81845 22.37569,-0.054 28.93243,4.92057 z"
           id="path4099-8-7-9-1-0-5-6"
           inkscape:connector-curvature="0"
           sodipodi:nodetypes="ssscs" />
        <path
           style="fill:#55d400;fill-opacity:1;stroke:none"
           d="m 56.476424,411.66968 c -8.23027,0 -14.9023,-6.07459 -14.9023,-13.56766 0,-7.49336 6.67203,-13.5678 14.9023,-13.5678 8.23026,0 9.78635,5.84546 26.02312,13.5678 -16.01433,7.35716 -17.79286,13.56766 -26.02312,13.56766 z"
           id="path4099-1-5-8-3-3-1-6"
           inkscape:connector-curvature="0"
           sodipodi:nodetypes="ssscs" />
        <path
           style="fill:#55d400;fill-opacity:1;stroke:none"
           d="m -295.97113,294.21084 c 0,8.23025 -6.07458,14.9022 -13.56765,14.9022 -7.49338,0 -13.56781,-6.67195 -13.56781,-14.9022 0,-8.23027 5.84545,-9.78653 13.56781,-26.02327 7.35716,16.01431 13.56765,17.793 13.56765,26.02327 z"
           id="path4099-9-1-6-1-3-2-2"
           inkscape:connector-curvature="0"
           sodipodi:nodetypes="ssscs" />
        <path
           style="fill:#55d400;fill-opacity:1;stroke:none"
           d="m -135.55209,373.38512 c 0,8.23025 -6.07457,14.9022 -13.56767,14.9022 -7.49336,0 -13.56779,-6.67195 -13.56779,-14.9022 0,-8.23027 5.84545,-9.78653 13.56779,-26.02326 7.3572,16.01431 13.56767,17.79299 13.56767,26.02326 z"
           id="path4099-6-9-8-7-3-7-8"
           inkscape:connector-curvature="0"
           sodipodi:nodetypes="ssscs" />
        <path
           style="fill:#55d400;fill-opacity:1;stroke:none"
           d="m -261.07282,315.97882 c -5.0011,6.53644 -13.87984,8.14397 -19.8307,3.59071 -5.95116,-4.55343 -6.72118,-13.54347 -1.71993,-20.0799 5.00109,-6.53644 10.58923,-4.22037 26.58861,-12.42293 -3.88826,17.18917 -0.0363,22.37567 -5.03798,28.91212 z"
           id="path4099-2-6-6-4-4-4-3"
           inkscape:connector-curvature="0"
           sodipodi:nodetypes="ssscs" />
        <path
           style="fill:#55d400;fill-opacity:1;stroke:none"
           d="m -338.60676,299.7216 c 5.8774,5.76133 6.38967,14.76982 1.14449,20.12081 -5.24547,5.35123 -14.2623,5.01867 -20.13984,-0.74265 -5.87739,-5.76132 -2.89681,-11.02511 -9.08624,-27.90583 16.58643,5.95633 22.20405,2.76635 28.08159,8.52767 z"
           id="path4099-0-7-6-1-9-4-4"
           inkscape:connector-curvature="0"
           sodipodi:nodetypes="ssscs" />
        <path
           style="fill:#55d400;fill-opacity:1;stroke:none"
           d="m -175.69632,378.06739 c 4.24037,7.05376 2.4718,15.90177 -3.95026,19.76241 -6.42219,3.86077 -15.06586,1.27227 -19.30637,-5.7815 -4.24037,-7.05378 -0.0319,-11.39931 -1.77947,-29.29383 14.55648,9.93452 20.79559,8.25913 25.0361,15.31292 z"
           id="path4099-18-0-6-8-5-3-0"
           inkscape:connector-curvature="0"
           sodipodi:nodetypes="ssscs" />
        <path
           style="fill:#55d400;fill-opacity:1;stroke:none"
           d="m -358.30794,344.0505 c 8.23027,0 14.90221,6.07457 14.90221,13.56764 0,7.49336 -6.67194,13.5678 -14.90221,13.5678 -8.23027,0 -9.78656,-5.84544 -26.02334,-13.5678 16.01433,-7.35716 17.79307,-13.56764 26.02334,-13.56764 z"
           id="path4099-92-9-8-5-3-2-5"
           inkscape:connector-curvature="0"
           sodipodi:nodetypes="ssscs" />
        <path
           style="fill:#55d400;fill-opacity:1;stroke:none"
           d="m -358.27846,398.23272 c 8.23026,0 14.90221,6.07458 14.90221,13.56765 0,7.49336 -6.67195,13.5678 -14.90221,13.5678 -8.23028,0 -9.78657,-5.84545 -26.02335,-13.5678 16.01434,-7.35716 17.79307,-13.56765 26.02335,-13.56765 z"
           id="path4099-183-5-5-0-7-4-1"
           inkscape:connector-curvature="0"
           sodipodi:nodetypes="ssscs" />
        <path
           style="fill:#55d400;fill-opacity:1;stroke:none"
           d="m -203.69704,411.46108 c 8.23028,0 14.90222,6.07457 14.90222,13.56764 0,7.49337 -6.67194,13.56781 -14.90222,13.56781 -8.23027,0 -9.78655,-5.84545 -26.02333,-13.56781 16.01432,-7.35716 17.79306,-13.56764 26.02333,-13.56764 z"
           id="path4099-99-0-6-1-7-0-9"
           inkscape:connector-curvature="0"
           sodipodi:nodetypes="ssscs" />
        <path
           inkscape:connector-curvature="0"
           id="rect2985-79-4-5-6-7-6-7-1-8"
           d="m -575.65615,-156.3868 c 30.91525,0 55.80369,23.27204 55.80369,52.17946 l 0,94.932121 c 0,28.907418 -24.88844,52.179455 -55.80369,52.179455 -30.91524,0 -55.80369,-23.272037 -55.80369,-52.179455 l 0,-94.932121 c 0,-28.90742 24.88845,-52.17946 55.80369,-52.17946 z"
           style="fill:#55d400;fill-opacity:1;stroke:none"
           transform="matrix(0,-1,1,0,0,0)" />
      </g>
      <path
         style="fill:#333333;fill-opacity:1;stroke:none"
         d="m -1103.0234,988.89602 c 0,4.87922 -3.9554,8.83459 -8.8346,8.83459 -4.8792,0 -8.8346,-3.95537 -8.8346,-8.83459 0,-4.8792 3.9554,-8.83459 8.8346,-8.83459 4.8792,0 8.8346,3.95539 8.8346,8.83459 z"
         id="path3896-4-6-9-5-7-9-7-5"
         inkscape:connector-curvature="0" />
      <path
         style="fill:#333333;fill-opacity:1;stroke:none"
         d="m -1074.6388,993.65244 c 0,4.87922 -3.9554,8.83466 -8.8346,8.83466 -4.8792,0 -8.8346,-3.95544 -8.8346,-8.83466 0,-4.8792 3.9554,-8.83459 8.8346,-8.83459 4.8792,0 8.8346,3.95539 8.8346,8.83459 z"
         id="path3896-3-9-56-4-2-8-8-9"
         inkscape:connector-curvature="0" />
      <path
         style="fill:#333333;fill-opacity:1;stroke:none"
         d="m -1042.2694,980.69947 c 0,4.87922 -3.9554,8.83459 -8.8346,8.83459 -4.8792,0 -8.8346,-3.95537 -8.8346,-8.83459 0,-4.87922 3.9554,-8.83459 8.8346,-8.83459 4.8792,0 8.8346,3.95537 8.8346,8.83459 z"
         id="path3896-3-9-5-8-3-1-4-3-1"
         inkscape:connector-curvature="0" />
      <path
         style="fill:#333333;fill-opacity:1;stroke:none"
         d="m -1118.4607,953.83663 c 0,4.87922 -3.9554,8.8346 -8.8346,8.8346 -4.8792,0 -8.8346,-3.95538 -8.8346,-8.8346 0,-4.87921 3.9554,-8.83459 8.8346,-8.83459 4.8792,0 8.8346,3.95538 8.8346,8.83459 z"
         id="path3896-12-9-4-0-8-4-9"
         inkscape:connector-curvature="0" />
      <path
         style="fill:#333333;fill-opacity:1;stroke:none"
         d="m -1080.7003,952.19522 c 0,4.87922 -3.9554,8.8346 -8.8346,8.8346 -4.8792,0 -8.8346,-3.95538 -8.8346,-8.8346 0,-4.87921 3.9554,-8.83459 8.8346,-8.83459 4.8792,0 8.8346,3.95538 8.8346,8.83459 z"
         id="path3896-7-7-2-6-1-6-8-3"
         inkscape:connector-curvature="0" />
      <path
         style="fill:#333333;fill-opacity:1;stroke:none"
         d="m -1042.696,934.38187 c 0,4.87922 -3.9554,8.8346 -8.8346,8.8346 -4.8792,0 -8.8346,-3.95538 -8.8346,-8.8346 0,-4.87921 3.9554,-8.83459 8.8346,-8.83459 4.8792,0 8.8346,3.95538 8.8346,8.83459 z"
         id="path3896-1-4-7-6-4-6-6-1"
         inkscape:connector-curvature="0" />
    </g>
    <g
       id="g3210"
       transform="matrix(1.0780663,0,0,1.0780663,144.78762,-66.108515)"
       style="fill:#e6e6e6">
      <g
         id="text3174"
         style="font-size:16.14929770999999903px;font-style:normal;font-variant:normal;font-weight:normal;font-stretch:normal;line-height:125%;letter-spacing:0px;word-spacing:0px;fill:#e6e6e6;fill-opacity:1;stroke:none;font-family:Ubuntu Mono;-inkscape-font-specification:Ubuntu Mono">
        <path
           id="path3200"
           d="m -850.56272,933.13104 -1.2112,0 0.50063,-2.63233 -1.79257,0 -0.50063,2.63233 -1.2112,0 0.50063,-2.63233 -1.03355,0 0,-1.08201 1.24349,0 0.48448,-2.56773 -1.72797,0 0,-1.06586 1.95406,0 0.50063,-2.64848 1.2112,0 -0.50063,2.64848 1.79257,0 0.48448,-2.64848 1.2112,0 -0.48448,2.64848 1.03355,0 0,1.06586 -1.24349,0 -0.50063,2.56773 1.74412,0 0,1.08201 -1.95406,0 -0.50063,2.63233 m -0.0162,-6.28207 -1.77642,0 -0.50063,2.56773 1.77642,0 0.50063,-2.56773"
           inkscape:connector-curvature="0"
           style="fill:#e6e6e6" />
        <path
           id="path3202"
           d="m -843.55392,932.17823 c 0.33374,0 0.62981,-0.0108 0.88821,-0.0323 0.26915,-0.0215 0.48985,-0.0485 0.66212,-0.0807 l 0,-2.2286 c -0.17227,-0.0538 -0.38221,-0.0969 -0.62982,-0.1292 -0.23686,-0.0323 -0.48987,-0.0484 -0.75902,-0.0485 -0.24763,10e-6 -0.48987,0.0215 -0.72672,0.0646 -0.23686,0.0323 -0.4468,0.0969 -0.62982,0.19379 -0.18303,0.0969 -0.33376,0.2261 -0.45218,0.38759 -0.11843,0.15072 -0.17765,0.34452 -0.17764,0.58137 -10e-6,0.48448 0.16149,0.82362 0.48447,1.01741 0.33375,0.18302 0.78055,0.27453 1.3404,0.27453 m -0.1292,-6.7181 c 0.55984,0 1.02817,0.07 1.40499,0.20994 0.38758,0.13996 0.6998,0.33376 0.93666,0.58137 0.23685,0.24763 0.40373,0.54908 0.50063,0.90436 0.0969,0.35529 0.14534,0.74288 0.14534,1.16275 l 0,4.6833 c -0.31222,0.0538 -0.72672,0.11843 -1.24349,0.19379 -0.50602,0.0754 -1.02818,0.11304 -1.56649,0.11304 -0.40911,0 -0.80746,-0.0377 -1.19504,-0.11304 -0.38759,-0.0646 -0.73211,-0.18303 -1.03356,-0.35528 -0.30145,-0.18303 -0.54369,-0.43065 -0.72672,-0.74287 -0.18302,-0.31222 -0.27454,-0.71057 -0.27453,-1.19505 -10e-6,-0.43065 0.0915,-0.79131 0.27453,-1.082 0.19379,-0.30145 0.43603,-0.54369 0.72672,-0.72672 0.30145,-0.18302 0.64059,-0.31222 1.01741,-0.38759 0.38758,-0.0861 0.77516,-0.12918 1.16275,-0.12919 0.52754,1e-5 1.04431,0.0592 1.55033,0.17764 l 0,-0.37143 c -10e-6,-0.22609 -0.0269,-0.44141 -0.0807,-0.64597 -0.0431,-0.21532 -0.13458,-0.40911 -0.27454,-0.58138 -0.12919,-0.17225 -0.31222,-0.30683 -0.54907,-0.40373 -0.2261,-0.10766 -0.52217,-0.16149 -0.88821,-0.16149 -0.46295,0 -0.86668,0.0323 -1.2112,0.0969 -0.34452,0.0646 -0.60829,0.1292 -0.79132,0.19379 l -0.16149,-1.09815 c 0.18302,-0.0861 0.48448,-0.16148 0.90436,-0.22609 0.43065,-0.0646 0.88821,-0.0969 1.37269,-0.0969"
           inkscape:connector-curvature="0"
           style="fill:#e6e6e6" />
        <path
           id="path3204"
           d="m -832.52395,925.63777 0,7.49327 -1.3081,0 0,-5.71685 c -0.29069,0.36606 -0.59753,0.7967 -0.92051,1.29194 -0.31222,0.49525 -0.62982,1.00665 -0.9528,1.53419 -0.31223,0.51678 -0.61368,1.02817 -0.90437,1.53418 -0.29069,0.50601 -0.54907,0.95819 -0.77516,1.35654 l -1.19505,0 0,-7.49327 1.29194,0 0,5.39386 c 0.24762,-0.41988 0.51678,-0.87206 0.80747,-1.35654 0.29068,-0.49524 0.59214,-0.9851 0.90436,-1.46958 0.31222,-0.49524 0.62443,-0.96357 0.93666,-1.40499 0.31221,-0.45218 0.61905,-0.83976 0.92051,-1.16275 l 1.19505,0 m -2.84228,-1.2112 c -0.60291,10e-6 -1.09277,-0.15072 -1.46959,-0.45218 -0.37681,-0.31221 -0.60829,-0.74286 -0.69442,-1.29194 l 1.01741,-0.27454 c 0.0861,0.31223 0.2207,0.56523 0.40373,0.75902 0.18302,0.18303 0.43065,0.27454 0.74287,0.27453 0.31222,10e-6 0.55984,-0.0915 0.74287,-0.27453 0.18302,-0.19379 0.3176,-0.44679 0.40373,-0.75902 l 1.00126,0.27454 c -0.0861,0.54908 -0.31761,0.97973 -0.69442,1.29194 -0.36606,0.30146 -0.85054,0.45219 -1.45344,0.45218"
           inkscape:connector-curvature="0"
           style="fill:#e6e6e6" />
        <path
           sodipodi:nodetypes="ccccccccccccc"
           inkscape:connector-curvature="0"
           id="path3206"
           d="m -824.65925,932.00059 0.62983,0 0,2.23157 -1.25965,0 0,-1.10112 -5.08703,0 0,-7.49327 1.34039,0 0,6.36282 3.05222,0 0,-6.36282 1.32424,0 0,6.36282"
           style="fill:#e6e6e6" />
        <path
           id="path3208"
           d="m -820.07284,924.47502 c -0.27993,10e-6 -0.52217,-0.0969 -0.72672,-0.29069 -0.20456,-0.19378 -0.30684,-0.45755 -0.30684,-0.79131 0,-0.33375 0.10228,-0.59752 0.30684,-0.79132 0.20455,-0.19378 0.44679,-0.29068 0.72672,-0.29069 0.29068,10e-6 0.53292,0.0969 0.72671,0.29069 0.20456,0.1938 0.30684,0.45757 0.30684,0.79132 0,0.33376 -0.10228,0.59753 -0.30684,0.79131 -0.19379,0.1938 -0.43603,0.2907 -0.72671,0.29069 m -0.33914,2.27705 -2.16401,0 0,-1.1143 3.48825,0 0,4.60255 c 0,0.74287 0.10228,1.2435 0.30684,1.50188 0.20455,0.24763 0.51139,0.37144 0.92051,0.37144 0.31221,0 0.59752,-0.0377 0.85591,-0.11305 0.26915,-0.0754 0.47909,-0.15611 0.62982,-0.24224 l 0.1938,1.13045 c -0.0646,0.0323 -0.15612,0.0754 -0.27454,0.1292 -0.11844,0.0431 -0.2584,0.0861 -0.41988,0.12919 -0.15074,0.0431 -0.323,0.0807 -0.51678,0.11305 -0.18303,0.0323 -0.37682,0.0484 -0.58138,0.0484 -0.47371,0 -0.86668,-0.0646 -1.17889,-0.19379 -0.31223,-0.12919 -0.56523,-0.32298 -0.75902,-0.58137 -0.18303,-0.25839 -0.31222,-0.57599 -0.38758,-0.95281 -0.0754,-0.38758 -0.11305,-0.83438 -0.11305,-1.34039 l 0,-3.48825"
           inkscape:connector-curvature="0"
           style="fill:#e6e6e6" />
      </g>
      <g
         id="text3178"
         style="font-size:10px;font-style:normal;font-variant:normal;font-weight:normal;font-stretch:normal;line-height:125%;letter-spacing:0px;word-spacing:0px;fill:#e6e6e6;fill-opacity:1;stroke:none;font-family:Ubuntu Mono;-inkscape-font-specification:Ubuntu Mono"
         transform="translate(-809.61871,852.98764)">
        <path
           id="path3183"
           d="m -44.694478,87.630277 c 0.06667,0.01333 0.186665,0.02667 0.36,0.04 0.173332,0.0067 0.346665,0.01 0.52,0.01 0.173331,0 0.336664,-0.01 0.49,-0.03 0.159997,-0.02667 0.296664,-0.07 0.41,-0.13 0.119997,-0.06 0.21333,-0.139999 0.28,-0.24 0.07333,-0.1 0.109997,-0.226666 0.11,-0.38 -3e-6,-0.146665 -0.03334,-0.269999 -0.1,-0.37 -0.06,-0.1 -0.143336,-0.179998 -0.25,-0.24 -0.106669,-0.06 -0.233336,-0.1 -0.38,-0.12 -0.146669,-0.02666 -0.303336,-0.04 -0.47,-0.04 l -0.97,0 0,1.5 m 0.86,-2.11 c 0.319998,3e-6 0.583331,-0.04666 0.79,-0.14 0.21333,-0.1 0.319997,-0.286664 0.32,-0.56 -3e-6,-0.139997 -0.03667,-0.249997 -0.11,-0.33 -0.06667,-0.08666 -0.160003,-0.15333 -0.28,-0.2 -0.113336,-0.04666 -0.243336,-0.07666 -0.39,-0.09 -0.146669,-0.01333 -0.293335,-0.02 -0.44,-0.02 -0.140002,4e-6 -0.276668,0.0033 -0.41,0.01 -0.133335,0.0067 -0.246668,0.01334 -0.34,0.02 l 0,1.31 0.86,0 m -0.01,2.82 c -0.360002,0 -0.683335,-0.01667 -0.97,-0.05 -0.286667,-0.03333 -0.516667,-0.07 -0.69,-0.11 l 0,-4.52 c 0.173333,-0.04 0.403333,-0.07666 0.69,-0.11 0.286665,-0.03333 0.609998,-0.04999 0.97,-0.05 0.239998,5e-6 0.476664,0.02 0.71,0.06 0.23333,0.04 0.439997,0.110004 0.62,0.21 0.179997,0.100004 0.32333,0.233337 0.43,0.4 0.11333,0.16667 0.169996,0.37667 0.17,0.63 -4e-6,0.233336 -0.05667,0.430003 -0.17,0.59 -0.113337,0.153336 -0.26667,0.276669 -0.46,0.37 0.25333,0.09334 0.456663,0.226669 0.61,0.4 0.153329,0.166668 0.229996,0.410001 0.23,0.73 -4e-6,0.280001 -0.05667,0.513334 -0.17,0.7 -0.10667,0.186667 -0.25667,0.336667 -0.45,0.45 -0.193337,0.106667 -0.420003,0.183333 -0.68,0.23 -0.260002,0.04667 -0.540002,0.07 -0.84,0.07"
           inkscape:connector-curvature="0"
           style="fill:#e6e6e6" />
        <path
           id="path3185"
           d="m -38.664478,87.670277 c 0.206664,0 0.389998,-0.0067 0.55,-0.02 0.166664,-0.01333 0.30333,-0.03 0.41,-0.05 l 0,-1.38 c -0.10667,-0.03333 -0.236669,-0.06 -0.39,-0.08 -0.146669,-0.02 -0.303336,-0.03 -0.47,-0.03 -0.153335,2e-6 -0.303335,0.01333 -0.45,0.04 -0.146668,0.02 -0.276668,0.06 -0.39,0.12 -0.113335,0.06 -0.206668,0.140002 -0.28,0.24 -0.07333,0.09333 -0.110001,0.213335 -0.11,0.36 -1e-6,0.300001 0.1,0.510001 0.3,0.63 0.206665,0.113334 0.483332,0.17 0.83,0.17 m -0.08,-4.16 c 0.346664,5e-6 0.636664,0.04334 0.87,0.13 0.239997,0.08667 0.43333,0.206671 0.58,0.36 0.146663,0.153337 0.249996,0.340004 0.31,0.56 0.06,0.220003 0.09,0.460003 0.09,0.72 l 0,2.9 c -0.193337,0.03333 -0.450003,0.07333 -0.77,0.12 -0.313336,0.04667 -0.636669,0.07 -0.97,0.07 -0.253335,0 -0.500002,-0.02333 -0.74,-0.07 -0.240001,-0.04 -0.453334,-0.113333 -0.64,-0.22 -0.186667,-0.113333 -0.336667,-0.266666 -0.45,-0.46 -0.113334,-0.193333 -0.17,-0.439999 -0.17,-0.74 0,-0.266665 0.05667,-0.489998 0.17,-0.67 0.12,-0.186665 0.269999,-0.336664 0.45,-0.45 0.186666,-0.113331 0.396666,-0.193331 0.63,-0.24 0.239998,-0.05333 0.479998,-0.08 0.72,-0.08 0.326664,3e-6 0.646664,0.03667 0.96,0.11 l 0,-0.23 c -3e-6,-0.139997 -0.01667,-0.27333 -0.05,-0.4 -0.02667,-0.13333 -0.08334,-0.25333 -0.17,-0.36 -0.08,-0.106663 -0.193336,-0.189996 -0.34,-0.25 -0.140002,-0.06666 -0.323335,-0.1 -0.55,-0.1 -0.286668,4e-6 -0.536668,0.02 -0.75,0.06 -0.213334,0.04 -0.376667,0.08 -0.49,0.12 l -0.1,-0.68 c 0.113333,-0.05333 0.299999,-0.1 0.56,-0.14 0.266665,-0.04 0.549998,-0.06 0.85,-0.06"
           inkscape:connector-curvature="0"
           style="fill:#e6e6e6" />
        <path
           id="path3187"
           d="m -33.864478,84.310277 c -2e-6,0.200004 -0.0067,0.413337 -0.02,0.64 -0.0067,0.220003 -0.02333,0.443336 -0.05,0.67 -0.02,0.220002 -0.05,0.440002 -0.09,0.66 -0.04,0.213335 -0.09333,0.413335 -0.16,0.6 -0.133335,0.380001 -0.336668,0.706667 -0.61,0.98 -0.273334,0.273333 -0.663334,0.436666 -1.17,0.49 l -0.12,-0.7 c 0.293333,-0.05333 0.523333,-0.159999 0.69,-0.32 0.173333,-0.166666 0.309999,-0.366666 0.41,-0.6 0.08667,-0.199998 0.149999,-0.426665 0.19,-0.68 0.04667,-0.253331 0.08,-0.519997 0.1,-0.8 0.02,-0.279997 0.03,-0.559997 0.03,-0.84 -10e-7,-0.279996 -10e-7,-0.543329 0,-0.79 l 2.74,0 0,4.64 -0.83,0 0,-3.95 -1.11,0"
           inkscape:connector-curvature="0"
           style="fill:#e6e6e6" />
        <path
           id="path3189"
           d="m -28.664478,87.670277 c 0.206664,0 0.389998,-0.0067 0.55,-0.02 0.166664,-0.01333 0.30333,-0.03 0.41,-0.05 l 0,-1.38 c -0.10667,-0.03333 -0.236669,-0.06 -0.39,-0.08 -0.146669,-0.02 -0.303336,-0.03 -0.47,-0.03 -0.153335,2e-6 -0.303335,0.01333 -0.45,0.04 -0.146668,0.02 -0.276668,0.06 -0.39,0.12 -0.113335,0.06 -0.206668,0.140002 -0.28,0.24 -0.07333,0.09333 -0.110001,0.213335 -0.11,0.36 -10e-7,0.300001 0.1,0.510001 0.3,0.63 0.206665,0.113334 0.483332,0.17 0.83,0.17 m -0.08,-4.16 c 0.346664,5e-6 0.636664,0.04334 0.87,0.13 0.239997,0.08667 0.43333,0.206671 0.58,0.36 0.146663,0.153337 0.249996,0.340004 0.31,0.56 0.06,0.220003 0.09,0.460003 0.09,0.72 l 0,2.9 c -0.193337,0.03333 -0.450003,0.07333 -0.77,0.12 -0.313336,0.04667 -0.636669,0.07 -0.97,0.07 -0.253335,0 -0.500002,-0.02333 -0.74,-0.07 -0.240001,-0.04 -0.453334,-0.113333 -0.64,-0.22 -0.186667,-0.113333 -0.336667,-0.266666 -0.45,-0.46 -0.113334,-0.193333 -0.17,-0.439999 -0.17,-0.74 0,-0.266665 0.05667,-0.489998 0.17,-0.67 0.12,-0.186665 0.269999,-0.336664 0.45,-0.45 0.186666,-0.113331 0.396666,-0.193331 0.63,-0.24 0.239998,-0.05333 0.479998,-0.08 0.72,-0.08 0.326664,3e-6 0.646664,0.03667 0.96,0.11 l 0,-0.23 c -3e-6,-0.139997 -0.01667,-0.27333 -0.05,-0.4 -0.02667,-0.13333 -0.08334,-0.25333 -0.17,-0.36 -0.08,-0.106663 -0.193336,-0.189996 -0.34,-0.25 -0.140002,-0.06666 -0.323335,-0.1 -0.55,-0.1 -0.286668,4e-6 -0.536668,0.02 -0.75,0.06 -0.213334,0.04 -0.376667,0.08 -0.49,0.12 l -0.1,-0.68 c 0.113333,-0.05333 0.299999,-0.1 0.56,-0.14 0.266665,-0.04 0.549998,-0.06 0.85,-0.06"
           inkscape:connector-curvature="0"
           style="fill:#e6e6e6" />
        <path
           id="path3191"
           d="m -21.924478,88.260277 -0.83,0 0,-2.05 -1.92,0 0,2.05 -0.83,0 0,-4.64 0.83,0 0,1.89 1.92,0 0,-1.89 0.83,0 0,4.64"
           inkscape:connector-curvature="0"
           style="fill:#e6e6e6" />
        <path
           id="path3193"
           d="m -16.964478,87.560277 0.39,0 0,1.99 -0.78,0 0,-1.29 -3.15,0 0,-4.64 0.83,0 0,3.94 1.89,0 0,-3.94 0.82,0 0,3.94"
           inkscape:connector-curvature="0"
           style="fill:#e6e6e6" />
        <path
           id="path3195"
           d="m -13.624478,83.510277 c 0.626664,5e-6 1.109997,0.196671 1.45,0.59 0.339996,0.38667 0.509996,0.97667 0.51,1.77 l 0,0.29 -3.32,0 c 0.03333,0.480001 0.189999,0.846668 0.47,1.1 0.286665,0.246667 0.686665,0.37 1.2,0.37 0.293331,0 0.54333,-0.02333 0.75,-0.07 0.206663,-0.04667 0.36333,-0.09667 0.47,-0.15 l 0.11,0.7 c -0.100004,0.05333 -0.280003,0.11 -0.54,0.17 -0.260003,0.06 -0.553336,0.09 -0.88,0.09 -0.400002,0 -0.753335,-0.06 -1.06,-0.18 -0.300001,-0.126667 -0.550001,-0.296667 -0.75,-0.51 -0.2,-0.213333 -0.35,-0.466666 -0.45,-0.76 -0.1,-0.299999 -0.15,-0.623332 -0.15,-0.97 0,-0.413331 0.06333,-0.77333 0.19,-1.08 0.126666,-0.306663 0.293333,-0.559996 0.5,-0.76 0.206666,-0.199996 0.439999,-0.349996 0.7,-0.45 0.259998,-0.1 0.526665,-0.149995 0.8,-0.15 m 1.12,1.98 c -3e-6,-0.39333 -0.103336,-0.70333 -0.31,-0.93 -0.206669,-0.23333 -0.480002,-0.349996 -0.82,-0.35 -0.193335,4e-6 -0.370002,0.03667 -0.53,0.11 -0.153335,0.07334 -0.286668,0.170004 -0.4,0.29 -0.113334,0.120003 -0.203334,0.25667 -0.27,0.41 -0.06667,0.153336 -0.110001,0.310003 -0.13,0.47 l 2.46,0 m -1.93,-2.73 c -0.133335,5e-6 -0.253334,-0.04999 -0.36,-0.15 -0.106668,-0.09999 -0.160001,-0.226661 -0.16,-0.38 -10e-7,-0.153327 0.05333,-0.276661 0.16,-0.37 0.106666,-0.09999 0.226665,-0.149994 0.36,-0.15 0.139999,6e-6 0.259998,0.05001 0.36,0.15 0.106665,0.09334 0.159998,0.216673 0.16,0.37 -2e-6,0.153339 -0.05333,0.280006 -0.16,0.38 -0.100002,0.100005 -0.220001,0.150005 -0.36,0.15 m 1.7,0 c -0.140003,5e-6 -0.263336,-0.04999 -0.37,-0.15 -0.100003,-0.09999 -0.150002,-0.226661 -0.15,-0.38 -2e-6,-0.153327 0.05,-0.276661 0.15,-0.37 0.106664,-0.09999 0.229997,-0.149994 0.37,-0.15 0.139997,6e-6 0.259997,0.05001 0.36,0.15 0.106663,0.09334 0.159996,0.216673 0.16,0.37 -4e-6,0.153339 -0.05334,0.280006 -0.16,0.38 -0.100003,0.100005 -0.220003,0.150005 -0.36,0.15"
           inkscape:connector-curvature="0"
           style="fill:#e6e6e6" />
        <path
           id="path3197"
           d="m -7.4644775,85.950277 c -3.8e-6,-0.539997 -0.1266703,-0.956664 -0.38,-1.25 -0.2533365,-0.299996 -0.5833362,-0.449996 -0.99,-0.45 -0.2266689,4e-6 -0.4066687,0.01 -0.54,0.03 -0.1266684,0.02 -0.2266683,0.04334 -0.3,0.07 l 0,2.93 c 0.093332,0.08667 0.2299982,0.166667 0.41,0.24 0.1799978,0.07333 0.3666643,0.11 0.56,0.11 0.2199972,0 0.4066637,-0.04333 0.56,-0.13 0.1599967,-0.08667 0.2899966,-0.203333 0.39,-0.35 0.099996,-0.153332 0.1733297,-0.329999 0.22,-0.53 0.046663,-0.206665 0.069996,-0.429998 0.07,-0.67 m 0.85,0 c -4.6e-6,0.353335 -0.046671,0.680001 -0.14,0.98 -0.086671,0.293334 -0.2166709,0.546667 -0.39,0.76 -0.1666706,0.213333 -0.3733371,0.38 -0.62,0.5 -0.2466699,0.12 -0.5266696,0.18 -0.84,0.18 -0.2466691,0 -0.4633355,-0.03 -0.65,-0.09 -0.1866685,-0.06 -0.3266683,-0.126667 -0.42,-0.2 l 0,1.83 -0.8300005,0 0,-6.15 c 0.18,-0.05333 0.409999,-0.106662 0.6900005,-0.16 0.2866649,-0.05333 0.6133313,-0.08 0.98,-0.08 0.3333306,5e-6 0.6366636,0.05667 0.91,0.17 0.2733297,0.113338 0.5066628,0.276671 0.7,0.49 0.1933291,0.20667 0.343329,0.460003 0.45,0.76 0.1066621,0.300003 0.1599954,0.636669 0.16,1.01"
           inkscape:connector-curvature="0"
           style="fill:#e6e6e6" />
      </g>
    </g>
    <text
       xml:space="preserve"
       style="font-size:13.60228539px;font-style:normal;font-variant:normal;font-weight:normal;font-stretch:normal;line-height:125%;letter-spacing:0px;word-spacing:0px;fill:#b3b3b3;fill-opacity:1;stroke:none;font-family:Ubuntu Mono;-inkscape-font-specification:Ubuntu Mono"
       id="text3033"
       sodipodi:linespacing="125%"
       transform="matrix(0.59324105,-0.80502489,0.80502489,0.59324105,-1052.1057,-200.19176)"><textPath
         xlink:href="#path3813"
         id="textPath3818"
         style="font-size:10px;fill:#b3b3b3">it.falanster.by</textPath></text>
  </g>
</svg>
