<?xml version="1.0" encoding="UTF-8" standalone="no"?>
<!-- Created with Inkscape (http://www.inkscape.org/) -->

<svg
   xmlns:dc="http://purl.org/dc/elements/1.1/"
   xmlns:cc="http://creativecommons.org/ns#"
   xmlns:rdf="http://www.w3.org/1999/02/22-rdf-syntax-ns#"
   xmlns:svg="http://www.w3.org/2000/svg"
   xmlns="http://www.w3.org/2000/svg"
   xmlns:xlink="http://www.w3.org/1999/xlink"
   xmlns:sodipodi="http://sodipodi.sourceforge.net/DTD/sodipodi-0.dtd"
   xmlns:inkscape="http://www.inkscape.org/namespaces/inkscape"
   width="171.8504"
   height="171.8504"
   id="svg2"
   version="1.1"
   inkscape:version="0.48.4 r9939"
   sodipodi:docname="geek_4_37.svg"
   inkscape:export-filename="/home/svet/Dropbox/falanster/design/signes/geek_4_37.png"
   inkscape:export-xdpi="300"
   inkscape:export-ydpi="300">
  <defs
     id="defs4">
    <path
       sodipodi:type="arc"
       style="fill:none;stroke:none"
       id="path3813"
       sodipodi:cx="313.65237"
       sodipodi:cy="85.482361"
       sodipodi:rx="51.51778"
       sodipodi:ry="51.51778"
       d="m 365.17015,85.482361 a 51.51778,51.51778 0 1 1 -103.03556,0 51.51778,51.51778 0 1 1 103.03556,0 z"
       transform="matrix(-0.03446126,1.0714068,1.0714068,0.03446126,-804.39667,599.84293)" />
  </defs>
  <sodipodi:namedview
     id="base"
     pagecolor="#ffffff"
     bordercolor="#666666"
     borderopacity="1.0"
     inkscape:pageopacity="0.0"
     inkscape:pageshadow="2"
     inkscape:zoom="2.8"
     inkscape:cx="79.548151"
     inkscape:cy="64.063342"
     inkscape:document-units="px"
     inkscape:current-layer="layer1"
     showgrid="false"
     fit-margin-top="0"
     fit-margin-left="0"
     fit-margin-right="0"
     fit-margin-bottom="0"
     inkscape:window-width="1301"
     inkscape:window-height="744"
     inkscape:window-x="65"
     inkscape:window-y="24"
     inkscape:window-maximized="1" />
  <metadata
     id="metadata7">
    <rdf:RDF>
      <cc:Work
         rdf:about="">
        <dc:format>image/svg+xml</dc:format>
        <dc:type
           rdf:resource="http://purl.org/dc/dcmitype/StillImage" />
        <dc:title></dc:title>
      </cc:Work>
    </rdf:RDF>
  </metadata>
  <g
     inkscape:label="Layer 1"
     inkscape:groupmode="layer"
     id="layer1"
     transform="translate(809.61871,-852.98764)">
    <path
       sodipodi:type="arc"
       style="fill:#333333;fill-opacity:1;fill-rule:nonzero;stroke:none"
       id="path2987"
       sodipodi:cx="-418.57144"
       sodipodi:cy="633.79077"
       sodipodi:rx="387.14285"
       sodipodi:ry="387.14285"
       d="m -31.428589,633.79077 c 0,213.8131 -173.329761,387.14283 -387.142851,387.14283 -213.8131,0 -387.14285,-173.32973 -387.14285,-387.14283 0,-213.81309 173.32975,-387.14285 387.14285,-387.14285 213.81309,0 387.142851,173.32976 387.142851,387.14285 z"
       transform="matrix(0.22194701,0,0,0.22194701,-630.79283,798.24487)" />
    <path
       sodipodi:type="arc"
       style="fill:none;stroke:none;stroke-width:0.42605752000000002;stroke-miterlimit:4;stroke-dasharray:1.27817252000000003, 1.27817252000000003;stroke-dashoffset:0"
       id="path2991"
       sodipodi:cx="32.857143"
       sodipodi:cy="92.207542"
       sodipodi:rx="55.357143"
       sodipodi:ry="55.357143"
       d="m 88.214287,92.207542 c 0,30.572908 -24.784238,55.357148 -55.357144,55.357148 C 2.2842373,147.56469 -22.5,122.78045 -22.5,92.207542 c 0,-30.572906 24.7842373,-55.357143 55.357143,-55.357143 30.572906,0 55.357144,24.784237 55.357144,55.357143 z"
       transform="matrix(1.1796109,0,0,1.1796109,-762.45216,830.14382)" />
    <path
       sodipodi:type="arc"
       style="fill:none;stroke:none;stroke-width:0.46126875000000001;stroke-miterlimit:4;stroke-dasharray:1.38380622000000009, 1.38380622000000009;stroke-dashoffset:0"
       id="path2991-3"
       sodipodi:cx="32.857143"
       sodipodi:cy="92.207542"
       sodipodi:rx="55.357143"
       sodipodi:ry="55.357143"
       d="m 88.214287,92.207542 c 0,30.572908 -24.784238,55.357148 -55.357144,55.357148 C 2.2842373,147.56469 -22.5,122.78045 -22.5,92.207542 c 0,-30.572906 24.7842373,-55.357143 55.357143,-55.357143 30.572906,0 55.357144,24.784237 55.357144,55.357143 z"
       transform="matrix(1.0836235,0,0,1.0836235,-759.29828,838.99458)" />
    <g
       id="g3210"
       transform="matrix(1.0780663,0,0,1.0780663,211.35905,-65.608515)"
       style="fill:#e6e6e6">
      <g
         id="text3174"
         style="font-size:16.14929771px;font-style:normal;font-variant:normal;font-weight:normal;font-stretch:normal;line-height:125%;letter-spacing:0px;word-spacing:0px;fill:#e6e6e6;fill-opacity:1;stroke:none;font-family:Ubuntu Mono;-inkscape-font-specification:Ubuntu Mono">
        <path
           id="path3200"
           d="m -850.56272,933.13104 -1.2112,0 0.50063,-2.63233 -1.79257,0 -0.50063,2.63233 -1.2112,0 0.50063,-2.63233 -1.03355,0 0,-1.08201 1.24349,0 0.48448,-2.56773 -1.72797,0 0,-1.06586 1.95406,0 0.50063,-2.64848 1.2112,0 -0.50063,2.64848 1.79257,0 0.48448,-2.64848 1.2112,0 -0.48448,2.64848 1.03355,0 0,1.06586 -1.24349,0 -0.50063,2.56773 1.74412,0 0,1.08201 -1.95406,0 -0.50063,2.63233 m -0.0162,-6.28207 -1.77642,0 -0.50063,2.56773 1.77642,0 0.50063,-2.56773"
           inkscape:connector-curvature="0"
           style="fill:#e6e6e6" />
        <path
           id="path3202"
           d="m -843.55392,932.17823 c 0.33374,0 0.62981,-0.0108 0.88821,-0.0323 0.26915,-0.0215 0.48985,-0.0485 0.66212,-0.0807 l 0,-2.2286 c -0.17227,-0.0538 -0.38221,-0.0969 -0.62982,-0.1292 -0.23686,-0.0323 -0.48987,-0.0484 -0.75902,-0.0485 -0.24763,10e-6 -0.48987,0.0215 -0.72672,0.0646 -0.23686,0.0323 -0.4468,0.0969 -0.62982,0.19379 -0.18303,0.0969 -0.33376,0.2261 -0.45218,0.38759 -0.11843,0.15072 -0.17765,0.34452 -0.17764,0.58137 -10e-6,0.48448 0.16149,0.82362 0.48447,1.01741 0.33375,0.18302 0.78055,0.27453 1.3404,0.27453 m -0.1292,-6.7181 c 0.55984,0 1.02817,0.07 1.40499,0.20994 0.38758,0.13996 0.6998,0.33376 0.93666,0.58137 0.23685,0.24763 0.40373,0.54908 0.50063,0.90436 0.0969,0.35529 0.14534,0.74288 0.14534,1.16275 l 0,4.6833 c -0.31222,0.0538 -0.72672,0.11843 -1.24349,0.19379 -0.50602,0.0754 -1.02818,0.11304 -1.56649,0.11304 -0.40911,0 -0.80746,-0.0377 -1.19504,-0.11304 -0.38759,-0.0646 -0.73211,-0.18303 -1.03356,-0.35528 -0.30145,-0.18303 -0.54369,-0.43065 -0.72672,-0.74287 -0.18302,-0.31222 -0.27454,-0.71057 -0.27453,-1.19505 -10e-6,-0.43065 0.0915,-0.79131 0.27453,-1.082 0.19379,-0.30145 0.43603,-0.54369 0.72672,-0.72672 0.30145,-0.18302 0.64059,-0.31222 1.01741,-0.38759 0.38758,-0.0861 0.77516,-0.12918 1.16275,-0.12919 0.52754,1e-5 1.04431,0.0592 1.55033,0.17764 l 0,-0.37143 c -10e-6,-0.22609 -0.0269,-0.44141 -0.0807,-0.64597 -0.0431,-0.21532 -0.13458,-0.40911 -0.27454,-0.58138 -0.12919,-0.17225 -0.31222,-0.30683 -0.54907,-0.40373 -0.2261,-0.10766 -0.52217,-0.16149 -0.88821,-0.16149 -0.46295,0 -0.86668,0.0323 -1.2112,0.0969 -0.34452,0.0646 -0.60829,0.1292 -0.79132,0.19379 l -0.16149,-1.09815 c 0.18302,-0.0861 0.48448,-0.16148 0.90436,-0.22609 0.43065,-0.0646 0.88821,-0.0969 1.37269,-0.0969"
           inkscape:connector-curvature="0"
           style="fill:#e6e6e6" />
        <path
           id="path3204"
           d="m -832.52395,925.63777 0,7.49327 -1.3081,0 0,-5.71685 c -0.29069,0.36606 -0.59753,0.7967 -0.92051,1.29194 -0.31222,0.49525 -0.62982,1.00665 -0.9528,1.53419 -0.31223,0.51678 -0.61368,1.02817 -0.90437,1.53418 -0.29069,0.50601 -0.54907,0.95819 -0.77516,1.35654 l -1.19505,0 0,-7.49327 1.29194,0 0,5.39386 c 0.24762,-0.41988 0.51678,-0.87206 0.80747,-1.35654 0.29068,-0.49524 0.59214,-0.9851 0.90436,-1.46958 0.31222,-0.49524 0.62443,-0.96357 0.93666,-1.40499 0.31221,-0.45218 0.61905,-0.83976 0.92051,-1.16275 l 1.19505,0 m -2.84228,-1.2112 c -0.60291,10e-6 -1.09277,-0.15072 -1.46959,-0.45218 -0.37681,-0.31221 -0.60829,-0.74286 -0.69442,-1.29194 l 1.01741,-0.27454 c 0.0861,0.31223 0.2207,0.56523 0.40373,0.75902 0.18302,0.18303 0.43065,0.27454 0.74287,0.27453 0.31222,10e-6 0.55984,-0.0915 0.74287,-0.27453 0.18302,-0.19379 0.3176,-0.44679 0.40373,-0.75902 l 1.00126,0.27454 c -0.0861,0.54908 -0.31761,0.97973 -0.69442,1.29194 -0.36606,0.30146 -0.85054,0.45219 -1.45344,0.45218"
           inkscape:connector-curvature="0"
           style="fill:#e6e6e6" />
        <path
           sodipodi:nodetypes="ccccccccccccc"
           inkscape:connector-curvature="0"
           id="path3206"
           d="m -824.65925,932.00059 0.62983,0 0,2.23157 -1.25965,0 0,-1.10112 -5.08703,0 0,-7.49327 1.34039,0 0,6.36282 3.05222,0 0,-6.36282 1.32424,0 0,6.36282"
           style="fill:#e6e6e6" />
        <path
           id="path3208"
           d="m -820.07284,924.47502 c -0.27993,10e-6 -0.52217,-0.0969 -0.72672,-0.29069 -0.20456,-0.19378 -0.30684,-0.45755 -0.30684,-0.79131 0,-0.33375 0.10228,-0.59752 0.30684,-0.79132 0.20455,-0.19378 0.44679,-0.29068 0.72672,-0.29069 0.29068,10e-6 0.53292,0.0969 0.72671,0.29069 0.20456,0.1938 0.30684,0.45757 0.30684,0.79132 0,0.33376 -0.10228,0.59753 -0.30684,0.79131 -0.19379,0.1938 -0.43603,0.2907 -0.72671,0.29069 m -0.33914,2.27705 -2.16401,0 0,-1.1143 3.48825,0 0,4.60255 c 0,0.74287 0.10228,1.2435 0.30684,1.50188 0.20455,0.24763 0.51139,0.37144 0.92051,0.37144 0.31221,0 0.59752,-0.0377 0.85591,-0.11305 0.26915,-0.0754 0.47909,-0.15611 0.62982,-0.24224 l 0.1938,1.13045 c -0.0646,0.0323 -0.15612,0.0754 -0.27454,0.1292 -0.11844,0.0431 -0.2584,0.0861 -0.41988,0.12919 -0.15074,0.0431 -0.323,0.0807 -0.51678,0.11305 -0.18303,0.0323 -0.37682,0.0484 -0.58138,0.0484 -0.47371,0 -0.86668,-0.0646 -1.17889,-0.19379 -0.31223,-0.12919 -0.56523,-0.32298 -0.75902,-0.58137 -0.18303,-0.25839 -0.31222,-0.57599 -0.38758,-0.95281 -0.0754,-0.38758 -0.11305,-0.83438 -0.11305,-1.34039 l 0,-3.48825"
           inkscape:connector-curvature="0"
           style="fill:#e6e6e6" />
      </g>
      <g
         id="text3178"
         style="font-size:10px;font-style:normal;font-variant:normal;font-weight:normal;font-stretch:normal;line-height:125%;letter-spacing:0px;word-spacing:0px;fill:#e6e6e6;fill-opacity:1;stroke:none;font-family:Ubuntu Mono;-inkscape-font-specification:Ubuntu Mono"
         transform="translate(-809.61871,852.98764)">
        <path
           id="path3183"
           d="m -44.694478,87.630277 c 0.06667,0.01333 0.186665,0.02667 0.36,0.04 0.173332,0.0067 0.346665,0.01 0.52,0.01 0.173331,0 0.336664,-0.01 0.49,-0.03 0.159997,-0.02667 0.296664,-0.07 0.41,-0.13 0.119997,-0.06 0.21333,-0.139999 0.28,-0.24 0.07333,-0.1 0.109997,-0.226666 0.11,-0.38 -3e-6,-0.146665 -0.03334,-0.269999 -0.1,-0.37 -0.06,-0.1 -0.143336,-0.179998 -0.25,-0.24 -0.106669,-0.06 -0.233336,-0.1 -0.38,-0.12 -0.146669,-0.02666 -0.303336,-0.04 -0.47,-0.04 l -0.97,0 0,1.5 m 0.86,-2.11 c 0.319998,3e-6 0.583331,-0.04666 0.79,-0.14 0.21333,-0.1 0.319997,-0.286664 0.32,-0.56 -3e-6,-0.139997 -0.03667,-0.249997 -0.11,-0.33 -0.06667,-0.08666 -0.160003,-0.15333 -0.28,-0.2 -0.113336,-0.04666 -0.243336,-0.07666 -0.39,-0.09 -0.146669,-0.01333 -0.293335,-0.02 -0.44,-0.02 -0.140002,4e-6 -0.276668,0.0033 -0.41,0.01 -0.133335,0.0067 -0.246668,0.01334 -0.34,0.02 l 0,1.31 0.86,0 m -0.01,2.82 c -0.360002,0 -0.683335,-0.01667 -0.97,-0.05 -0.286667,-0.03333 -0.516667,-0.07 -0.69,-0.11 l 0,-4.52 c 0.173333,-0.04 0.403333,-0.07666 0.69,-0.11 0.286665,-0.03333 0.609998,-0.04999 0.97,-0.05 0.239998,5e-6 0.476664,0.02 0.71,0.06 0.23333,0.04 0.439997,0.110004 0.62,0.21 0.179997,0.100004 0.32333,0.233337 0.43,0.4 0.11333,0.16667 0.169996,0.37667 0.17,0.63 -4e-6,0.233336 -0.05667,0.430003 -0.17,0.59 -0.113337,0.153336 -0.26667,0.276669 -0.46,0.37 0.25333,0.09334 0.456663,0.226669 0.61,0.4 0.153329,0.166668 0.229996,0.410001 0.23,0.73 -4e-6,0.280001 -0.05667,0.513334 -0.17,0.7 -0.10667,0.186667 -0.25667,0.336667 -0.45,0.45 -0.193337,0.106667 -0.420003,0.183333 -0.68,0.23 -0.260002,0.04667 -0.540002,0.07 -0.84,0.07"
           inkscape:connector-curvature="0"
           style="fill:#e6e6e6" />
        <path
           id="path3185"
           d="m -38.664478,87.670277 c 0.206664,0 0.389998,-0.0067 0.55,-0.02 0.166664,-0.01333 0.30333,-0.03 0.41,-0.05 l 0,-1.38 c -0.10667,-0.03333 -0.236669,-0.06 -0.39,-0.08 -0.146669,-0.02 -0.303336,-0.03 -0.47,-0.03 -0.153335,2e-6 -0.303335,0.01333 -0.45,0.04 -0.146668,0.02 -0.276668,0.06 -0.39,0.12 -0.113335,0.06 -0.206668,0.140002 -0.28,0.24 -0.07333,0.09333 -0.110001,0.213335 -0.11,0.36 -1e-6,0.300001 0.1,0.510001 0.3,0.63 0.206665,0.113334 0.483332,0.17 0.83,0.17 m -0.08,-4.16 c 0.346664,5e-6 0.636664,0.04334 0.87,0.13 0.239997,0.08667 0.43333,0.206671 0.58,0.36 0.146663,0.153337 0.249996,0.340004 0.31,0.56 0.06,0.220003 0.09,0.460003 0.09,0.72 l 0,2.9 c -0.193337,0.03333 -0.450003,0.07333 -0.77,0.12 -0.313336,0.04667 -0.636669,0.07 -0.97,0.07 -0.253335,0 -0.500002,-0.02333 -0.74,-0.07 -0.240001,-0.04 -0.453334,-0.113333 -0.64,-0.22 -0.186667,-0.113333 -0.336667,-0.266666 -0.45,-0.46 -0.113334,-0.193333 -0.17,-0.439999 -0.17,-0.74 0,-0.266665 0.05667,-0.489998 0.17,-0.67 0.12,-0.186665 0.269999,-0.336664 0.45,-0.45 0.186666,-0.113331 0.396666,-0.193331 0.63,-0.24 0.239998,-0.05333 0.479998,-0.08 0.72,-0.08 0.326664,3e-6 0.646664,0.03667 0.96,0.11 l 0,-0.23 c -3e-6,-0.139997 -0.01667,-0.27333 -0.05,-0.4 -0.02667,-0.13333 -0.08334,-0.25333 -0.17,-0.36 -0.08,-0.106663 -0.193336,-0.189996 -0.34,-0.25 -0.140002,-0.06666 -0.323335,-0.1 -0.55,-0.1 -0.286668,4e-6 -0.536668,0.02 -0.75,0.06 -0.213334,0.04 -0.376667,0.08 -0.49,0.12 l -0.1,-0.68 c 0.113333,-0.05333 0.299999,-0.1 0.56,-0.14 0.266665,-0.04 0.549998,-0.06 0.85,-0.06"
           inkscape:connector-curvature="0"
           style="fill:#e6e6e6" />
        <path
           id="path3187"
           d="m -33.864478,84.310277 c -2e-6,0.200004 -0.0067,0.413337 -0.02,0.64 -0.0067,0.220003 -0.02333,0.443336 -0.05,0.67 -0.02,0.220002 -0.05,0.440002 -0.09,0.66 -0.04,0.213335 -0.09333,0.413335 -0.16,0.6 -0.133335,0.380001 -0.336668,0.706667 -0.61,0.98 -0.273334,0.273333 -0.663334,0.436666 -1.17,0.49 l -0.12,-0.7 c 0.293333,-0.05333 0.523333,-0.159999 0.69,-0.32 0.173333,-0.166666 0.309999,-0.366666 0.41,-0.6 0.08667,-0.199998 0.149999,-0.426665 0.19,-0.68 0.04667,-0.253331 0.08,-0.519997 0.1,-0.8 0.02,-0.279997 0.03,-0.559997 0.03,-0.84 -10e-7,-0.279996 -10e-7,-0.543329 0,-0.79 l 2.74,0 0,4.64 -0.83,0 0,-3.95 -1.11,0"
           inkscape:connector-curvature="0"
           style="fill:#e6e6e6" />
        <path
           id="path3189"
           d="m -28.664478,87.670277 c 0.206664,0 0.389998,-0.0067 0.55,-0.02 0.166664,-0.01333 0.30333,-0.03 0.41,-0.05 l 0,-1.38 c -0.10667,-0.03333 -0.236669,-0.06 -0.39,-0.08 -0.146669,-0.02 -0.303336,-0.03 -0.47,-0.03 -0.153335,2e-6 -0.303335,0.01333 -0.45,0.04 -0.146668,0.02 -0.276668,0.06 -0.39,0.12 -0.113335,0.06 -0.206668,0.140002 -0.28,0.24 -0.07333,0.09333 -0.110001,0.213335 -0.11,0.36 -10e-7,0.300001 0.1,0.510001 0.3,0.63 0.206665,0.113334 0.483332,0.17 0.83,0.17 m -0.08,-4.16 c 0.346664,5e-6 0.636664,0.04334 0.87,0.13 0.239997,0.08667 0.43333,0.206671 0.58,0.36 0.146663,0.153337 0.249996,0.340004 0.31,0.56 0.06,0.220003 0.09,0.460003 0.09,0.72 l 0,2.9 c -0.193337,0.03333 -0.450003,0.07333 -0.77,0.12 -0.313336,0.04667 -0.636669,0.07 -0.97,0.07 -0.253335,0 -0.500002,-0.02333 -0.74,-0.07 -0.240001,-0.04 -0.453334,-0.113333 -0.64,-0.22 -0.186667,-0.113333 -0.336667,-0.266666 -0.45,-0.46 -0.113334,-0.193333 -0.17,-0.439999 -0.17,-0.74 0,-0.266665 0.05667,-0.489998 0.17,-0.67 0.12,-0.186665 0.269999,-0.336664 0.45,-0.45 0.186666,-0.113331 0.396666,-0.193331 0.63,-0.24 0.239998,-0.05333 0.479998,-0.08 0.72,-0.08 0.326664,3e-6 0.646664,0.03667 0.96,0.11 l 0,-0.23 c -3e-6,-0.139997 -0.01667,-0.27333 -0.05,-0.4 -0.02667,-0.13333 -0.08334,-0.25333 -0.17,-0.36 -0.08,-0.106663 -0.193336,-0.189996 -0.34,-0.25 -0.140002,-0.06666 -0.323335,-0.1 -0.55,-0.1 -0.286668,4e-6 -0.536668,0.02 -0.75,0.06 -0.213334,0.04 -0.376667,0.08 -0.49,0.12 l -0.1,-0.68 c 0.113333,-0.05333 0.299999,-0.1 0.56,-0.14 0.266665,-0.04 0.549998,-0.06 0.85,-0.06"
           inkscape:connector-curvature="0"
           style="fill:#e6e6e6" />
        <path
           id="path3191"
           d="m -21.924478,88.260277 -0.83,0 0,-2.05 -1.92,0 0,2.05 -0.83,0 0,-4.64 0.83,0 0,1.89 1.92,0 0,-1.89 0.83,0 0,4.64"
           inkscape:connector-curvature="0"
           style="fill:#e6e6e6" />
        <path
           id="path3193"
           d="m -16.964478,87.560277 0.39,0 0,1.99 -0.78,0 0,-1.29 -3.15,0 0,-4.64 0.83,0 0,3.94 1.89,0 0,-3.94 0.82,0 0,3.94"
           inkscape:connector-curvature="0"
           style="fill:#e6e6e6" />
        <path
           id="path3195"
           d="m -13.624478,83.510277 c 0.626664,5e-6 1.109997,0.196671 1.45,0.59 0.339996,0.38667 0.509996,0.97667 0.51,1.77 l 0,0.29 -3.32,0 c 0.03333,0.480001 0.189999,0.846668 0.47,1.1 0.286665,0.246667 0.686665,0.37 1.2,0.37 0.293331,0 0.54333,-0.02333 0.75,-0.07 0.206663,-0.04667 0.36333,-0.09667 0.47,-0.15 l 0.11,0.7 c -0.100004,0.05333 -0.280003,0.11 -0.54,0.17 -0.260003,0.06 -0.553336,0.09 -0.88,0.09 -0.400002,0 -0.753335,-0.06 -1.06,-0.18 -0.300001,-0.126667 -0.550001,-0.296667 -0.75,-0.51 -0.2,-0.213333 -0.35,-0.466666 -0.45,-0.76 -0.1,-0.299999 -0.15,-0.623332 -0.15,-0.97 0,-0.413331 0.06333,-0.77333 0.19,-1.08 0.126666,-0.306663 0.293333,-0.559996 0.5,-0.76 0.206666,-0.199996 0.439999,-0.349996 0.7,-0.45 0.259998,-0.1 0.526665,-0.149995 0.8,-0.15 m 1.12,1.98 c -3e-6,-0.39333 -0.103336,-0.70333 -0.31,-0.93 -0.206669,-0.23333 -0.480002,-0.349996 -0.82,-0.35 -0.193335,4e-6 -0.370002,0.03667 -0.53,0.11 -0.153335,0.07334 -0.286668,0.170004 -0.4,0.29 -0.113334,0.120003 -0.203334,0.25667 -0.27,0.41 -0.06667,0.153336 -0.110001,0.310003 -0.13,0.47 l 2.46,0 m -1.93,-2.73 c -0.133335,5e-6 -0.253334,-0.04999 -0.36,-0.15 -0.106668,-0.09999 -0.160001,-0.226661 -0.16,-0.38 -10e-7,-0.153327 0.05333,-0.276661 0.16,-0.37 0.106666,-0.09999 0.226665,-0.149994 0.36,-0.15 0.139999,6e-6 0.259998,0.05001 0.36,0.15 0.106665,0.09334 0.159998,0.216673 0.16,0.37 -2e-6,0.153339 -0.05333,0.280006 -0.16,0.38 -0.100002,0.100005 -0.220001,0.150005 -0.36,0.15 m 1.7,0 c -0.140003,5e-6 -0.263336,-0.04999 -0.37,-0.15 -0.100003,-0.09999 -0.150002,-0.226661 -0.15,-0.38 -2e-6,-0.153327 0.05,-0.276661 0.15,-0.37 0.106664,-0.09999 0.229997,-0.149994 0.37,-0.15 0.139997,6e-6 0.259997,0.05001 0.36,0.15 0.106663,0.09334 0.159996,0.216673 0.16,0.37 -4e-6,0.153339 -0.05334,0.280006 -0.16,0.38 -0.100003,0.100005 -0.220003,0.150005 -0.36,0.15"
           inkscape:connector-curvature="0"
           style="fill:#e6e6e6" />
        <path
           id="path3197"
           d="m -7.4644775,85.950277 c -3.8e-6,-0.539997 -0.1266703,-0.956664 -0.38,-1.25 -0.2533365,-0.299996 -0.5833362,-0.449996 -0.99,-0.45 -0.2266689,4e-6 -0.4066687,0.01 -0.54,0.03 -0.1266684,0.02 -0.2266683,0.04334 -0.3,0.07 l 0,2.93 c 0.093332,0.08667 0.2299982,0.166667 0.41,0.24 0.1799978,0.07333 0.3666643,0.11 0.56,0.11 0.2199972,0 0.4066637,-0.04333 0.56,-0.13 0.1599967,-0.08667 0.2899966,-0.203333 0.39,-0.35 0.099996,-0.153332 0.1733297,-0.329999 0.22,-0.53 0.046663,-0.206665 0.069996,-0.429998 0.07,-0.67 m 0.85,0 c -4.6e-6,0.353335 -0.046671,0.680001 -0.14,0.98 -0.086671,0.293334 -0.2166709,0.546667 -0.39,0.76 -0.1666706,0.213333 -0.3733371,0.38 -0.62,0.5 -0.2466699,0.12 -0.5266696,0.18 -0.84,0.18 -0.2466691,0 -0.4633355,-0.03 -0.65,-0.09 -0.1866685,-0.06 -0.3266683,-0.126667 -0.42,-0.2 l 0,1.83 -0.8300005,0 0,-6.15 c 0.18,-0.05333 0.409999,-0.106662 0.6900005,-0.16 0.2866649,-0.05333 0.6133313,-0.08 0.98,-0.08 0.3333306,5e-6 0.6366636,0.05667 0.91,0.17 0.2733297,0.113338 0.5066628,0.276671 0.7,0.49 0.1933291,0.20667 0.343329,0.460003 0.45,0.76 0.1066621,0.300003 0.1599954,0.636669 0.16,1.01"
           inkscape:connector-curvature="0"
           style="fill:#e6e6e6" />
      </g>
    </g>
    <text
       xml:space="preserve"
       style="font-size:13.60228539px;font-style:normal;font-variant:normal;font-weight:normal;font-stretch:normal;line-height:125%;letter-spacing:0px;word-spacing:0px;fill:#b3b3b3;fill-opacity:1;stroke:none;font-family:Ubuntu Mono;-inkscape-font-specification:Ubuntu Mono"
       id="text3033"
       sodipodi:linespacing="125%"
       transform="matrix(-0.59324105,0.80502489,-0.80502489,-0.59324105,-396.19578,2077.4096)"><textPath
         xlink:href="#path3813"
         id="textPath3818"
         style="font-size:10px;fill:#b3b3b3">it.falanster.by</textPath></text>
    <g
       id="g3198"
       transform="matrix(0.37862916,-0.04480101,0.04480101,0.37862916,-1023.9743,727.84999)"
       style="fill:#55d400">
      <path
         inkscape:connector-curvature="0"
         id="path9306-6-4"
         d="m 729.53125,524.875 c -4.6319,-0.2802 -9.37691,0.7486 -13.65625,3.28125 a 3.0254858,3.0254858 0 1 0 3.0625,5.21875 c 8.6021,-5.091 19.62775,-2.2896 24.71875,6.3125 1.34714,2.27622 2.15228,4.836 2.40625,7.46875 a 3.0302028,3.0302028 0 1 0 6.03125,-0.59375 c -0.33903,-3.51447 -1.4517,-6.89898 -3.25,-9.9375 -4.22109,-7.13223 -11.59266,-11.283 -19.3125,-11.75 z"
         style="font-size:medium;font-style:normal;font-variant:normal;font-weight:normal;font-stretch:normal;text-indent:0;text-align:start;text-decoration:none;line-height:normal;letter-spacing:normal;word-spacing:normal;text-transform:none;direction:ltr;block-progression:tb;writing-mode:lr-tb;text-anchor:start;baseline-shift:baseline;color:#000000;fill:#55d400;fill-opacity:1;stroke:none;stroke-width:6.04068469999999991;marker:none;visibility:visible;display:inline;overflow:visible;enable-background:accumulate;font-family:Sans;-inkscape-font-specification:Sans" />
      <path
         inkscape:connector-curvature="0"
         id="path9306-1-2-5"
         d="m 731.78125,509.59375 c -6.84145,-0.4124 -13.8599,1.16137 -20.1875,4.90625 a 3.0206446,3.0206446 0 1 0 3.0625,5.1875 c 14.06413,-8.32362 32.14513,-3.68914 40.46875,10.375 2.20557,3.72668 3.55294,7.90834 3.96875,12.21875 a 3.0302028,3.0302028 0 1 0 6.03125,-0.59375 c -0.50087,-5.19213 -2.15577,-10.19852 -4.8125,-14.6875 -6.24147,-10.546 -17.12883,-16.71892 -28.53125,-17.40625 z"
         style="font-size:medium;font-style:normal;font-variant:normal;font-weight:normal;font-stretch:normal;text-indent:0;text-align:start;text-decoration:none;line-height:normal;letter-spacing:normal;word-spacing:normal;text-transform:none;direction:ltr;block-progression:tb;writing-mode:lr-tb;text-anchor:start;baseline-shift:baseline;color:#000000;fill:#55d400;fill-opacity:1;stroke:none;stroke-width:6.04068517999999965;marker:none;visibility:visible;display:inline;overflow:visible;enable-background:accumulate;font-family:Sans;-inkscape-font-specification:Sans" />
      <path
         inkscape:connector-curvature="0"
         id="path9306-4-8-4"
         d="m 734.96875,494.25 c -8.87296,-0.53394 -18.00794,1.48432 -26.21875,6.34375 a 3.0206444,3.0206444 0 1 0 3.09375,5.1875 c 19.08604,-11.29574 43.6105,-4.9923 54.90625,14.09375 2.99483,5.06027 4.84165,10.7096 5.40625,16.5625 a 3.0206444,3.0206444 0 1 0 6,-0.5625 c -0.64966,-6.73462 -2.77276,-13.27118 -6.21875,-19.09375 -8.09905,-13.6847 -22.18049,-21.64134 -36.96875,-22.53125 z"
         style="font-size:medium;font-style:normal;font-variant:normal;font-weight:normal;font-stretch:normal;text-indent:0;text-align:start;text-decoration:none;line-height:normal;letter-spacing:normal;word-spacing:normal;text-transform:none;direction:ltr;block-progression:tb;writing-mode:lr-tb;text-anchor:start;baseline-shift:baseline;color:#000000;fill:#55d400;fill-opacity:1;stroke:none;stroke-width:6.04068469999999991;marker:none;visibility:visible;display:inline;overflow:visible;enable-background:accumulate;font-family:Sans;-inkscape-font-specification:Sans" />
    </g>
    <g
       id="g3261-7-8-4"
       style="fill:#55d400;stroke:none"
       transform="matrix(0.18773513,0.06436378,-0.06436378,0.18773513,-1304.5615,632.48119)">
      <path
         sodipodi:nodetypes="csccsssscssczscac"
         inkscape:connector-curvature="0"
         id="path3245-1-9-4"
         d="m 3198.5714,336.6479 c 0,0 -18.5714,24.28571 -15.7143,41.42857 2.8572,17.14286 25.7143,50 25.7143,50 1.3288,13.89088 3.3508,29.78734 3.5504,31.60189 4.2857,37.14285 49.7251,40.59173 49.7251,96.30601 0,55.71429 -6.1326,44.94924 -28.9898,74.94924 -22.8571,30 -26.6853,54.01654 -22.8571,80 5.9594,40.44816 38.3816,100.24775 141.4286,84.28572 71.5424,-11.08194 81.4285,-32.85715 81.4285,-32.85715 0,0 0.7293,5.90898 -39.8687,14.28572 -65.6722,13.5504 -153.277,-26.19054 -139.6113,-92.61204 5.2417,-25.4775 19.9282,-32.39667 41.082,-57.14286 42.001,-55.2481 32.3876,-97.13291 25.5409,-117.07107 -6.8467,-19.93815 -20.9211,-28.24272 -29.2634,-44.68322 -7.9839,-15.73428 -29.2862,-25.17935 -36.9709,-48.23339 -2.5822,-28.96011 -2.683,-42.90223 -15.1943,-58.82885 -9.3441,-11.89482 -30,-21.42857 -40,-21.42857 z"
         style="fill:#55d400;stroke:none" />
      <path
         sodipodi:nodetypes="ccsssccccccsccsc"
         inkscape:connector-curvature="0"
         id="path3247-0-7-1"
         d="m 3281.5373,466.82287 c 23.8824,-13.32688 23.2015,-11.53014 33.7144,-28.35069 0,0 3.8311,-13.79224 -6.8961,-20.68835 -10.7274,-6.89612 -18.3775,-17.98929 -10.1776,-19.43476 3.6713,-0.64718 2.5151,-1.25359 8.6451,-1.25359 6.1299,0 9.4779,-1.67997 8.9815,-4.96996 -34.831,2.85741 -14.0759,-9.20037 -23.54,-19.54957 -5.3637,0 -1.0842,0.2092 -4.9155,8.63779 -9.408,15.52794 -18.4764,-1.11016 -24.2014,-4.80661 -3.8312,2.2987 -0.5393,8.33167 7.7669,17.33627 11.0553,7.83506 -8.8984,23.64281 -1.6371,27.10537 5.1919,2.03051 3.4673,-8.52155 8.0648,-14.65143 4.5974,-6.12988 12.6236,6.98907 12.6236,6.98907 2.0885,5.83451 6.4549,12.36455 5.0662,16.76328 -2.7638,8.75454 -14.7105,13.60454 -17.4855,19.49187 -4.4589,9.4597 1.2399,17.20058 3.9907,17.38131 z"
         style="fill:#55d400;stroke:none" />
      <path
         sodipodi:nodetypes="csssssccssacssccscacc"
         inkscape:connector-curvature="0"
         id="path3249-6-8-4"
         d="m 3225.3572,463.79075 c 7.8571,3.21429 16.7857,4.64286 11.4286,10.71429 -5.3572,6.07142 -13.5715,10 -22.5,14.28571 -8.9286,4.28571 -15,10.35714 -21.4286,1.07143 -6.4286,-9.28572 -16.0714,-27.5 -18.5714,-27.14286 -2.5,0.35714 -13.9286,15.35714 -14.6429,20.35714 -0.7143,5 -6.0714,2.5 -6.0714,2.5 0,0 -6.4286,-2.5 0,-7.85714 9.0428,-16.74701 -0.5924,-11.01156 -14.7961,-15.633 -1.3818,-0.44962 0.1532,-4.72414 3.0104,-5.08128 2.8571,-0.35715 14.0996,-1.42497 15.3568,-6.8933 0.7896,-3.43429 -6.7854,-8.1067 -6.7854,-8.1067 0,0 -0.7143,-8.57143 3.5714,-5 4.2857,3.57142 8.2446,5.62834 15.5419,7.47415 5.3586,1.35541 0.8867,-10.3313 4.4582,-12.8313 3.5714,-2.5 6.7857,5 6.7857,5 0,0 -3.2143,14.64286 0.7142,16.78572 3.9286,2.14286 5,8.57143 5,8.57143 0,0 6.2419,12.15147 11.7857,11.78571 7.0327,-0.46399 7.5,-13.21428 12.8571,-16.78571 6.8078,-5.89638 6.6434,4.02445 14.2858,6.78571 z"
         style="fill:#55d400;stroke:none" />
      <path
         sodipodi:nodetypes="cssssscssacszccccsc"
         inkscape:connector-curvature="0"
         id="path3257-6-8-0"
         d="m 3233.9286,572.71932 c 0,0 8.5714,-13.92857 20,-12.14285 11.4285,1.78571 17.8571,-5.35715 18.2143,8.21428 0.3571,13.57143 5.3571,15.35715 -6.7858,20.35715 -12.1428,5 -19.6428,4.64285 -24.2857,4.64285 -4.6428,0 -9.6428,1.42857 -12.8571,3.21429 -3.2143,1.78571 -4.2857,1.78571 -6.0714,2.85714 -1.7858,1.07143 -10.3572,5 -15.3572,16.78572 -5,11.78571 -7.1428,12.14285 -7.1428,10.71428 0,-1.42857 2.7918,-12.28378 -1.4025,-15.11314 -4.2319,-2.85478 -7.8883,4.12892 -14.669,4.39886 -1.4285,0 -3.0903,-0.21173 0,-4.28572 4.3549,-5.74117 10.614,-14.49457 -4.9401,-14.0215 -15.5541,0.47308 -11.8456,-2.76421 -8.9884,-4.54993 13.4884,-0.86541 16.6653,-3.89496 6.0714,-4.64285 -7.8572,-1.42858 -10,-5.71429 0.3571,-5.35715 12.5615,1.47747 26.3672,-1.86089 33.5715,-1.78571 6.0714,0 8.5714,-3.57143 13.9285,-5.71429 5.3572,-2.14285 10.3572,-3.57143 10.3572,-3.57143 z"
         style="fill:#55d400;stroke:none" />
      <path
         sodipodi:nodetypes="cssssscccsacsscsc"
         inkscape:connector-curvature="0"
         id="path3259-5-1-3"
         d="m 3321.0714,601.29075 c 0,0 -17.1428,-3.92857 -16.0714,-13.57143 1.0714,-9.64285 -1.4286,-20.71428 9.6429,-24.28571 11.0714,-3.57143 15.3571,-4.28571 21.7857,-1.42857 6.4285,2.85714 10,14.28571 10,19.28571 0,5 4.2856,4.28572 4.2856,-1.78571 0,-6.07143 -0.3571,-23.57143 4.2858,-22.14286 1.6483,22.35285 8.3242,6.56003 17.8571,5.71429 -2.8467,8.52027 -3.865,9.15467 -1.2193,12.6557 5.9527,5.622 14.7008,-1.05718 13.3622,4.13001 -1.0412,4.03458 -10.0098,2.38011 -10.3571,6.42857 -0.3676,4.28482 1.822,6.01562 9.6428,8.57143 2.1429,0.71429 3.4458,5.3392 -8.9286,3.57143 -5,-0.71429 -9.2857,-3.92857 -20,-0.35714 -10.7142,3.57143 -17.1428,6.42857 -17.1428,6.42857 0,0 0.3571,-4.64286 -5,-5 -5.3572,-0.35714 -12.1429,1.78571 -12.1429,1.78571 z"
         style="fill:#55d400;stroke:none" />
    </g>
  </g>
</svg>
