<?xml version="1.0" encoding="UTF-8" standalone="no"?>
<!-- Created with Inkscape (http://www.inkscape.org/) -->

<svg
   xmlns:dc="http://purl.org/dc/elements/1.1/"
   xmlns:cc="http://creativecommons.org/ns#"
   xmlns:rdf="http://www.w3.org/1999/02/22-rdf-syntax-ns#"
   xmlns:svg="http://www.w3.org/2000/svg"
   xmlns="http://www.w3.org/2000/svg"
   xmlns:xlink="http://www.w3.org/1999/xlink"
   xmlns:sodipodi="http://sodipodi.sourceforge.net/DTD/sodipodi-0.dtd"
   xmlns:inkscape="http://www.inkscape.org/namespaces/inkscape"
   width="171.8504"
   height="171.8504"
   id="svg2"
   version="1.1"
   inkscape:version="0.48.4 r9939"
   sodipodi:docname="geek_3_2_37.svg"
   inkscape:export-filename="/home/svet/Dropbox/falanster/design/signes/geek_3_2_37.png"
   inkscape:export-xdpi="300"
   inkscape:export-ydpi="300">
  <defs
     id="defs4">
    <path
       sodipodi:type="arc"
       style="fill:none;stroke:none"
       id="path3813"
       sodipodi:cx="313.65237"
       sodipodi:cy="85.482361"
       sodipodi:rx="51.51778"
       sodipodi:ry="51.51778"
       d="m 365.17015,85.482361 a 51.51778,51.51778 0 1 1 -103.03556,0 51.51778,51.51778 0 1 1 103.03556,0 z"
       transform="matrix(-0.03446126,1.0714068,1.0714068,0.03446126,-804.39667,599.84293)" />
  </defs>
  <sodipodi:namedview
     id="base"
     pagecolor="#ffffff"
     bordercolor="#666666"
     borderopacity="1.0"
     inkscape:pageopacity="0.0"
     inkscape:pageshadow="2"
     inkscape:zoom="2.8"
     inkscape:cx="93.71634"
     inkscape:cy="87.899369"
     inkscape:document-units="px"
     inkscape:current-layer="layer1"
     showgrid="false"
     fit-margin-top="0"
     fit-margin-left="0"
     fit-margin-right="0"
     fit-margin-bottom="0"
     inkscape:window-width="1301"
     inkscape:window-height="744"
     inkscape:window-x="65"
     inkscape:window-y="24"
     inkscape:window-maximized="1" />
  <metadata
     id="metadata7">
    <rdf:RDF>
      <cc:Work
         rdf:about="">
        <dc:format>image/svg+xml</dc:format>
        <dc:type
           rdf:resource="http://purl.org/dc/dcmitype/StillImage" />
        <dc:title></dc:title>
      </cc:Work>
    </rdf:RDF>
  </metadata>
  <g
     inkscape:label="Layer 1"
     inkscape:groupmode="layer"
     id="layer1"
     transform="translate(809.61871,-852.98764)">
    <path
       sodipodi:type="arc"
       style="fill:#333333;fill-opacity:1;fill-rule:nonzero;stroke:none"
       id="path2987"
       sodipodi:cx="-418.57144"
       sodipodi:cy="633.79077"
       sodipodi:rx="387.14285"
       sodipodi:ry="387.14285"
       d="m -31.428589,633.79077 c 0,213.8131 -173.329761,387.14283 -387.142851,387.14283 -213.8131,0 -387.14285,-173.32973 -387.14285,-387.14283 0,-213.81309 173.32975,-387.14285 387.14285,-387.14285 213.81309,0 387.142851,173.32976 387.142851,387.14285 z"
       transform="matrix(0.22194701,0,0,0.22194701,-630.79283,798.24487)" />
    <path
       sodipodi:type="arc"
       style="fill:none;stroke:#f9f9f9;stroke-width:0.42605752000000002;stroke-miterlimit:4;stroke-dasharray:1.27817252000000003, 1.27817252000000003;stroke-dashoffset:0"
       id="path2991"
       sodipodi:cx="32.857143"
       sodipodi:cy="92.207542"
       sodipodi:rx="55.357143"
       sodipodi:ry="55.357143"
       d="m 88.214287,92.207542 c 0,30.572908 -24.784238,55.357148 -55.357144,55.357148 C 2.2842373,147.56469 -22.5,122.78045 -22.5,92.207542 c 0,-30.572906 24.7842373,-55.357143 55.357143,-55.357143 30.572906,0 55.357144,24.784237 55.357144,55.357143 z"
       transform="matrix(1.1796109,0,0,1.1796109,-762.45216,830.14382)" />
    <path
       sodipodi:type="arc"
       style="fill:none;stroke:#f9f9f9;stroke-width:0.46126875000000001;stroke-miterlimit:4;stroke-dasharray:1.38380622000000009, 1.38380622000000009;stroke-dashoffset:0"
       id="path2991-3"
       sodipodi:cx="32.857143"
       sodipodi:cy="92.207542"
       sodipodi:rx="55.357143"
       sodipodi:ry="55.357143"
       d="m 88.214287,92.207542 c 0,30.572908 -24.784238,55.357148 -55.357144,55.357148 C 2.2842373,147.56469 -22.5,122.78045 -22.5,92.207542 c 0,-30.572906 24.7842373,-55.357143 55.357143,-55.357143 30.572906,0 55.357144,24.784237 55.357144,55.357143 z"
       transform="matrix(1.0836235,0,0,1.0836235,-759.29828,838.99458)" />
    <g
       id="g3136"
       transform="matrix(0.49457043,0,0,0.49457043,-187.30921,493.2003)">
      <g
         transform="matrix(0.23511946,0,0,0.23511946,-1052.1374,735.38838)"
         id="g3306">
        <path
           inkscape:connector-curvature="0"
           id="rect3855-0-5-9-2-1-7-5-2"
           d="m 370.80783,776.70599 40.13075,0 0,221.38501 -40.13075,0 z"
           style="fill:#55d400;fill-opacity:1;stroke:none"
           transform="matrix(0.8622694,0.50644988,-0.46018637,0.88782234,0,0)" />
        <path
           inkscape:connector-curvature="0"
           id="rect3855-5-7-4-9-6-8-0-6"
           d="m -842.52856,489.41898 40.13075,0 0,221.38501 -40.13075,0 z"
           style="fill:#55d400;fill-opacity:1;stroke:none"
           transform="matrix(0.65563803,-0.75507534,0.78866003,0.61482954,0,0)" />
        <path
           inkscape:connector-curvature="0"
           id="rect2985-79-1-9-3-2-4-9"
           d="m -307.92134,289.38184 c 30.91524,0 55.80369,23.27203 55.80369,52.17945 l 0,189.51756 c 0,28.90741 -24.88845,52.17945 -55.80369,52.17945 -30.91525,0 -55.8037,-23.27204 -55.8037,-52.17945 l 0,-189.51756 c 0,-28.90742 24.88845,-52.17945 55.8037,-52.17945 z"
           style="fill:#55d400;fill-opacity:1;stroke:none" />
        <path
           inkscape:connector-curvature="0"
           id="path3787-9-0-6-9-3-7-0"
           d="m 612.14286,645.2193 c 0,23.27486 -18.868,42.14286 -42.14286,42.14286 -23.27486,0 -42.14286,-18.868 -42.14286,-42.14286 0,-23.27486 18.868,-42.14286 42.14286,-42.14286 23.27486,0 42.14286,18.868 42.14286,42.14286 z"
           style="fill:#55d400;fill-opacity:1;stroke:none"
           transform="matrix(1.3843393,0,0,1.3843393,-1108.3568,35.892234)" />
        <path
           inkscape:connector-curvature="0"
           id="path3787-3-9-6-4-2-8-3-1"
           d="m 612.14286,645.2193 c 0,23.27486 -18.868,42.14286 -42.14286,42.14286 -23.27486,0 -42.14286,-18.868 -42.14286,-42.14286 0,-23.27486 18.868,-42.14286 42.14286,-42.14286 23.27486,0 42.14286,18.868 42.14286,42.14286 z"
           style="fill:#55d400;fill-opacity:1;stroke:none"
           transform="matrix(1.3843393,0,0,1.3843393,-946.96479,28.911094)" />
        <path
           inkscape:connector-curvature="0"
           id="path3787-5-3-8-0-7-2-9-2"
           d="m 612.14286,645.2193 c 0,23.27486 -18.868,42.14286 -42.14286,42.14286 -23.27486,0 -42.14286,-18.868 -42.14286,-42.14286 0,-23.27486 18.868,-42.14286 42.14286,-42.14286 23.27486,0 42.14286,18.868 42.14286,42.14286 z"
           style="fill:#55d400;fill-opacity:1;stroke:none"
           transform="matrix(1.3843393,0,0,1.3843393,-786.31519,-46.060816)" />
        <path
           inkscape:connector-curvature="0"
           id="path3787-53-7-7-7-4-1-3-3"
           d="m 612.14286,645.2193 c 0,23.27486 -18.868,42.14286 -42.14286,42.14286 -23.27486,0 -42.14286,-18.868 -42.14286,-42.14286 0,-23.27486 18.868,-42.14286 42.14286,-42.14286 23.27486,0 42.14286,18.868 42.14286,42.14286 z"
           style="fill:#55d400;fill-opacity:1;stroke:none"
           transform="matrix(1.3843393,0,0,1.3843393,-1041.1174,184.21432)" />
        <path
           inkscape:connector-curvature="0"
           id="path3787-4-1-5-8-2-6-8-9"
           d="m 612.14286,645.2193 c 0,23.27486 -18.868,42.14286 -42.14286,42.14286 -23.27486,0 -42.14286,-18.868 -42.14286,-42.14286 0,-23.27486 18.868,-42.14286 42.14286,-42.14286 23.27486,0 42.14286,18.868 42.14286,42.14286 z"
           style="fill:#55d400;fill-opacity:1;stroke:none"
           transform="matrix(1.3843393,0,0,1.3843393,-922.17289,206.224)" />
        <path
           inkscape:connector-curvature="0"
           id="rect3855-5-71-7-0-5-9-6"
           d="m 363.19464,648.8006 40.13075,0 0,221.38501 -40.13075,0 z"
           style="fill:#55d400;fill-opacity:1;stroke:none"
           transform="matrix(0.70852623,0.70568447,-0.66726536,0.74482007,0,0)" />
        <path
           inkscape:connector-curvature="0"
           id="rect3855-8-1-4-7-1-5-2-2"
           d="m -705.3681,694.23499 40.13075,0 0,221.38501 -40.13075,0 z"
           style="fill:#55d400;fill-opacity:1;stroke:none"
           transform="matrix(0.92669399,-0.37581677,0.4242518,0.90554426,0,0)" />
        <path
           inkscape:connector-curvature="0"
           id="rect3855-6-6-5-6-8-6-4-4"
           d="m -766.12927,223.99118 40.13075,0 0,221.38501 -40.13075,0 z"
           style="fill:#55d400;fill-opacity:1;stroke:none"
           transform="matrix(0.49431547,-0.86928259,0.89418464,0.44769836,0,0)" />
        <path
           inkscape:connector-curvature="0"
           id="rect3855-89-9-0-5-6-8-6-3"
           d="m -92.375557,703.36139 40.130753,0 0,221.38501 -40.130753,0 z"
           style="fill:#55d400;fill-opacity:1;stroke:none"
           transform="matrix(0.98898489,0.14801652,-0.09555887,0.99542378,0,0)" />
        <path
           inkscape:connector-curvature="0"
           id="rect2985-79-4-5-5-7-5-5-2"
           d="m -528.30135,-353.44244 c 30.91525,0 55.80369,23.27203 55.80369,52.17945 l 0,146.79044 c 0,28.90742 -24.88844,52.17946 -55.80369,52.17946 -30.91524,0 -55.80369,-23.27204 -55.80369,-52.17946 l 0,-146.79044 c 0,-28.90742 24.88845,-52.17945 55.80369,-52.17945 z"
           style="fill:#55d400;fill-opacity:1;stroke:none"
           transform="matrix(0,-1,1,0,0,0)" />
        <path
           inkscape:connector-curvature="0"
           id="rect2985-79-7-0-7-2-4-6-9"
           d="m 3.7010498,327.17371 c 30.9152452,0 55.8036922,23.27203 55.8036922,52.17945 l 0,199.70936 c 0,28.90742 -24.888447,52.17945 -55.8036922,52.17945 -30.9152448,0 -55.8036918,-23.27203 -55.8036918,-52.17945 l 0,-199.70936 c 0,-28.90742 24.888447,-52.17945 55.8036918,-52.17945 z"
           style="fill:#55d400;fill-opacity:1;stroke:none" />
        <path
           inkscape:connector-curvature="0"
           id="rect2985-79-5-8-8-2-7-1-3"
           d="m -150.76371,369.81876 c 30.91525,0 55.803696,23.27203 55.803696,52.17945 l 0,325.38639 c 0,28.90742 -24.888446,52.17946 -55.803696,52.17946 -30.91524,0 -55.80369,-23.27204 -55.80369,-52.17946 l 0,-325.38639 c 0,-28.90742 24.88845,-52.17945 55.80369,-52.17945 z"
           style="fill:#55d400;fill-opacity:1;stroke:none" />
        <path
           inkscape:connector-curvature="0"
           id="path3787-4-1-7-8-5-2-7-8-5"
           d="m 612.14286,645.2193 c 0,23.27486 -18.868,42.14286 -42.14286,42.14286 -23.27486,0 -42.14286,-18.868 -42.14286,-42.14286 0,-23.27486 18.868,-42.14286 42.14286,-42.14286 23.27486,0 42.14286,18.868 42.14286,42.14286 z"
           style="fill:#55d400;fill-opacity:1;stroke:none"
           transform="matrix(1.3843393,0,0,1.3843393,-784.50073,151.13296)" />
        <path
           style="fill:#55d400;fill-opacity:1;stroke:none"
           d="m 16.625754,329.57398 c 0,8.23026 -6.07457,14.9022 -13.5676302,14.9022 -7.49334,0 -13.5678098,-6.67194 -13.5678098,-14.9022 0,-8.23027 5.8454698,-9.78653 13.5678098,-26.02326 7.3571602,16.01432 13.5676302,17.79299 13.5676302,26.02326 z"
           id="path4099-90-1-7-8-9-1"
           inkscape:connector-curvature="0"
           sodipodi:nodetypes="ssscs" />
        <path
           style="fill:#55d400;fill-opacity:1;stroke:none"
           d="m 52.210724,358.79545 c -5.8819,5.75672 -14.89911,6.08209 -20.14028,0.72698 -5.24127,-5.35532 -4.72173,-14.3633 1.16018,-20.12001 5.88209,-5.7567 11.08299,-2.66765 28.08825,-8.50556 -6.29888,16.45929 -3.22605,22.14189 -9.10815,27.89859 z"
           id="path4099-4-2-4-7-7-5-3"
           inkscape:connector-curvature="0"
           sodipodi:nodetypes="ssscs" />
        <path
           style="fill:#55d400;fill-opacity:1;stroke:none"
           d="m -30.14795,342.19157 c 6.55664,4.97464 8.2002,13.84674 3.67113,19.81614 -4.52916,5.96963 -13.51593,6.77612 -20.07276,1.80149 -6.55664,-4.97465 -4.26335,-10.57213 -12.5308,-26.5382 17.20486,3.81845 22.37569,-0.054 28.93243,4.92057 z"
           id="path4099-8-7-9-1-0-5-6"
           inkscape:connector-curvature="0"
           sodipodi:nodetypes="ssscs" />
        <path
           style="fill:#55d400;fill-opacity:1;stroke:none"
           d="m 56.476424,411.66968 c -8.23027,0 -14.9023,-6.07459 -14.9023,-13.56766 0,-7.49336 6.67203,-13.5678 14.9023,-13.5678 8.23026,0 9.78635,5.84546 26.02312,13.5678 -16.01433,7.35716 -17.79286,13.56766 -26.02312,13.56766 z"
           id="path4099-1-5-8-3-3-1-6"
           inkscape:connector-curvature="0"
           sodipodi:nodetypes="ssscs" />
        <path
           style="fill:#55d400;fill-opacity:1;stroke:none"
           d="m -295.97113,294.21084 c 0,8.23025 -6.07458,14.9022 -13.56765,14.9022 -7.49338,0 -13.56781,-6.67195 -13.56781,-14.9022 0,-8.23027 5.84545,-9.78653 13.56781,-26.02327 7.35716,16.01431 13.56765,17.793 13.56765,26.02327 z"
           id="path4099-9-1-6-1-3-2-2"
           inkscape:connector-curvature="0"
           sodipodi:nodetypes="ssscs" />
        <path
           style="fill:#55d400;fill-opacity:1;stroke:none"
           d="m -135.55209,373.38512 c 0,8.23025 -6.07457,14.9022 -13.56767,14.9022 -7.49336,0 -13.56779,-6.67195 -13.56779,-14.9022 0,-8.23027 5.84545,-9.78653 13.56779,-26.02326 7.3572,16.01431 13.56767,17.79299 13.56767,26.02326 z"
           id="path4099-6-9-8-7-3-7-8"
           inkscape:connector-curvature="0"
           sodipodi:nodetypes="ssscs" />
        <path
           style="fill:#55d400;fill-opacity:1;stroke:none"
           d="m -261.07282,315.97882 c -5.0011,6.53644 -13.87984,8.14397 -19.8307,3.59071 -5.95116,-4.55343 -6.72118,-13.54347 -1.71993,-20.0799 5.00109,-6.53644 10.58923,-4.22037 26.58861,-12.42293 -3.88826,17.18917 -0.0363,22.37567 -5.03798,28.91212 z"
           id="path4099-2-6-6-4-4-4-3"
           inkscape:connector-curvature="0"
           sodipodi:nodetypes="ssscs" />
        <path
           style="fill:#55d400;fill-opacity:1;stroke:none"
           d="m -338.60676,299.7216 c 5.8774,5.76133 6.38967,14.76982 1.14449,20.12081 -5.24547,5.35123 -14.2623,5.01867 -20.13984,-0.74265 -5.87739,-5.76132 -2.89681,-11.02511 -9.08624,-27.90583 16.58643,5.95633 22.20405,2.76635 28.08159,8.52767 z"
           id="path4099-0-7-6-1-9-4-4"
           inkscape:connector-curvature="0"
           sodipodi:nodetypes="ssscs" />
        <path
           style="fill:#55d400;fill-opacity:1;stroke:none"
           d="m -175.69632,378.06739 c 4.24037,7.05376 2.4718,15.90177 -3.95026,19.76241 -6.42219,3.86077 -15.06586,1.27227 -19.30637,-5.7815 -4.24037,-7.05378 -0.0319,-11.39931 -1.77947,-29.29383 14.55648,9.93452 20.79559,8.25913 25.0361,15.31292 z"
           id="path4099-18-0-6-8-5-3-0"
           inkscape:connector-curvature="0"
           sodipodi:nodetypes="ssscs" />
        <path
           style="fill:#55d400;fill-opacity:1;stroke:none"
           d="m -358.30794,344.0505 c 8.23027,0 14.90221,6.07457 14.90221,13.56764 0,7.49336 -6.67194,13.5678 -14.90221,13.5678 -8.23027,0 -9.78656,-5.84544 -26.02334,-13.5678 16.01433,-7.35716 17.79307,-13.56764 26.02334,-13.56764 z"
           id="path4099-92-9-8-5-3-2-5"
           inkscape:connector-curvature="0"
           sodipodi:nodetypes="ssscs" />
        <path
           style="fill:#55d400;fill-opacity:1;stroke:none"
           d="m -358.27846,398.23272 c 8.23026,0 14.90221,6.07458 14.90221,13.56765 0,7.49336 -6.67195,13.5678 -14.90221,13.5678 -8.23028,0 -9.78657,-5.84545 -26.02335,-13.5678 16.01434,-7.35716 17.79307,-13.56765 26.02335,-13.56765 z"
           id="path4099-183-5-5-0-7-4-1"
           inkscape:connector-curvature="0"
           sodipodi:nodetypes="ssscs" />
        <path
           style="fill:#55d400;fill-opacity:1;stroke:none"
           d="m -203.69704,411.46108 c 8.23028,0 14.90222,6.07457 14.90222,13.56764 0,7.49337 -6.67194,13.56781 -14.90222,13.56781 -8.23027,0 -9.78655,-5.84545 -26.02333,-13.56781 16.01432,-7.35716 17.79306,-13.56764 26.02333,-13.56764 z"
           id="path4099-99-0-6-1-7-0-9"
           inkscape:connector-curvature="0"
           sodipodi:nodetypes="ssscs" />
        <path
           inkscape:connector-curvature="0"
           id="rect2985-79-4-5-6-7-6-7-1-8"
           d="m -575.65615,-156.3868 c 30.91525,0 55.80369,23.27204 55.80369,52.17946 l 0,94.932121 c 0,28.907418 -24.88844,52.179455 -55.80369,52.179455 -30.91524,0 -55.80369,-23.272037 -55.80369,-52.179455 l 0,-94.932121 c 0,-28.90742 24.88845,-52.17946 55.80369,-52.17946 z"
           style="fill:#55d400;fill-opacity:1;stroke:none"
           transform="matrix(0,-1,1,0,0,0)" />
      </g>
      <path
         style="fill:#333333;fill-opacity:1;stroke:none"
         d="m -1103.0234,988.89602 c 0,4.87922 -3.9554,8.83459 -8.8346,8.83459 -4.8792,0 -8.8346,-3.95537 -8.8346,-8.83459 0,-4.8792 3.9554,-8.83459 8.8346,-8.83459 4.8792,0 8.8346,3.95539 8.8346,8.83459 z"
         id="path3896-4-6-9-5-7-9-7-5"
         inkscape:connector-curvature="0" />
      <path
         style="fill:#333333;fill-opacity:1;stroke:none"
         d="m -1074.6388,993.65244 c 0,4.87922 -3.9554,8.83466 -8.8346,8.83466 -4.8792,0 -8.8346,-3.95544 -8.8346,-8.83466 0,-4.8792 3.9554,-8.83459 8.8346,-8.83459 4.8792,0 8.8346,3.95539 8.8346,8.83459 z"
         id="path3896-3-9-56-4-2-8-8-9"
         inkscape:connector-curvature="0" />
      <path
         style="fill:#333333;fill-opacity:1;stroke:none"
         d="m -1042.2694,980.69947 c 0,4.87922 -3.9554,8.83459 -8.8346,8.83459 -4.8792,0 -8.8346,-3.95537 -8.8346,-8.83459 0,-4.87922 3.9554,-8.83459 8.8346,-8.83459 4.8792,0 8.8346,3.95537 8.8346,8.83459 z"
         id="path3896-3-9-5-8-3-1-4-3-1"
         inkscape:connector-curvature="0" />
      <path
         style="fill:#333333;fill-opacity:1;stroke:none"
         d="m -1118.4607,953.83663 c 0,4.87922 -3.9554,8.8346 -8.8346,8.8346 -4.8792,0 -8.8346,-3.95538 -8.8346,-8.8346 0,-4.87921 3.9554,-8.83459 8.8346,-8.83459 4.8792,0 8.8346,3.95538 8.8346,8.83459 z"
         id="path3896-12-9-4-0-8-4-9"
         inkscape:connector-curvature="0" />
      <path
         style="fill:#333333;fill-opacity:1;stroke:none"
         d="m -1080.7003,952.19522 c 0,4.87922 -3.9554,8.8346 -8.8346,8.8346 -4.8792,0 -8.8346,-3.95538 -8.8346,-8.8346 0,-4.87921 3.9554,-8.83459 8.8346,-8.83459 4.8792,0 8.8346,3.95538 8.8346,8.83459 z"
         id="path3896-7-7-2-6-1-6-8-3"
         inkscape:connector-curvature="0" />
      <path
         style="fill:#333333;fill-opacity:1;stroke:none"
         d="m -1042.696,934.38187 c 0,4.87922 -3.9554,8.8346 -8.8346,8.8346 -4.8792,0 -8.8346,-3.95538 -8.8346,-8.8346 0,-4.87921 3.9554,-8.83459 8.8346,-8.83459 4.8792,0 8.8346,3.95538 8.8346,8.83459 z"
         id="path3896-1-4-7-6-4-6-6-1"
         inkscape:connector-curvature="0" />
    </g>
    <text
       xml:space="preserve"
       style="font-size:13.60228539px;font-style:normal;font-variant:normal;font-weight:normal;font-stretch:normal;line-height:125%;letter-spacing:0px;word-spacing:0px;fill:#b3b3b3;fill-opacity:1;stroke:none;font-family:Ubuntu Mono;-inkscape-font-specification:Ubuntu Mono"
       id="text3033"
       sodipodi:linespacing="125%"
       transform="matrix(0.59324105,-0.80502489,0.80502489,0.59324105,-1052.1057,-200.19176)"><textPath
         xlink:href="#path3813"
         id="textPath3818"
         style="font-size:10px;fill:#b3b3b3">it.falanster.by</textPath></text>
  </g>
</svg>
