<?xml version="1.0" encoding="UTF-8" standalone="no"?>
<!-- Created with Inkscape (http://www.inkscape.org/) -->

<svg
   xmlns:dc="http://purl.org/dc/elements/1.1/"
   xmlns:cc="http://creativecommons.org/ns#"
   xmlns:rdf="http://www.w3.org/1999/02/22-rdf-syntax-ns#"
   xmlns:svg="http://www.w3.org/2000/svg"
   xmlns="http://www.w3.org/2000/svg"
   xmlns:xlink="http://www.w3.org/1999/xlink"
   xmlns:sodipodi="http://sodipodi.sourceforge.net/DTD/sodipodi-0.dtd"
   xmlns:inkscape="http://www.inkscape.org/namespaces/inkscape"
   width="171.8504"
   height="171.8504"
   id="svg2"
   version="1.1"
   inkscape:version="0.48.4 r9939"
   sodipodi:docname="geek_6_37.svg"
   inkscape:export-filename="/home/svet/Dropbox/falanster/design/signes/geek_3_2_37.png"
   inkscape:export-xdpi="300"
   inkscape:export-ydpi="300">
  <defs
     id="defs4">
    <path
       sodipodi:type="arc"
       style="fill:none;stroke:none"
       id="path3813"
       sodipodi:cx="313.65237"
       sodipodi:cy="85.482361"
       sodipodi:rx="51.51778"
       sodipodi:ry="51.51778"
       d="m 365.17015,85.482361 a 51.51778,51.51778 0 1 1 -103.03556,0 51.51778,51.51778 0 1 1 103.03556,0 z"
       transform="matrix(-0.03446126,1.0714068,1.0714068,0.03446126,-804.39667,599.84293)" />
    <path
       sodipodi:type="arc"
       style="fill:none;stroke:none"
       id="path3813-3"
       sodipodi:cx="313.65237"
       sodipodi:cy="85.482361"
       sodipodi:rx="51.51778"
       sodipodi:ry="51.51778"
       d="m 365.17015,85.482361 a 51.51778,51.51778 0 1 1 -103.03556,0 51.51778,51.51778 0 1 1 103.03556,0 z"
       transform="matrix(-0.03446126,1.0714068,1.0714068,0.03446126,-804.39667,599.84293)" />
  </defs>
  <sodipodi:namedview
     id="base"
     pagecolor="#ffffff"
     bordercolor="#666666"
     borderopacity="1.0"
     inkscape:pageopacity="0.0"
     inkscape:pageshadow="2"
     inkscape:zoom="1.979899"
     inkscape:cx="86.529977"
     inkscape:cy="102.69539"
     inkscape:document-units="px"
     inkscape:current-layer="layer1"
     showgrid="false"
     fit-margin-top="0"
     fit-margin-left="0"
     fit-margin-right="0"
     fit-margin-bottom="0"
     inkscape:window-width="1301"
     inkscape:window-height="744"
     inkscape:window-x="65"
     inkscape:window-y="24"
     inkscape:window-maximized="1" />
  <metadata
     id="metadata7">
    <rdf:RDF>
      <cc:Work
         rdf:about="">
        <dc:format>image/svg+xml</dc:format>
        <dc:type
           rdf:resource="http://purl.org/dc/dcmitype/StillImage" />
        <dc:title></dc:title>
      </cc:Work>
    </rdf:RDF>
  </metadata>
  <g
     inkscape:label="Layer 1"
     inkscape:groupmode="layer"
     id="layer1"
     transform="translate(809.61871,-852.98764)">
    <path
       sodipodi:type="arc"
       style="fill:#333333;fill-opacity:1;fill-rule:nonzero;stroke:none"
       id="path2987"
       sodipodi:cx="-418.57144"
       sodipodi:cy="633.79077"
       sodipodi:rx="387.14285"
       sodipodi:ry="387.14285"
       d="m -31.428589,633.79077 c 0,213.8131 -173.329761,387.14283 -387.142851,387.14283 -213.8131,0 -387.14285,-173.32973 -387.14285,-387.14283 0,-213.81309 173.32975,-387.14285 387.14285,-387.14285 213.81309,0 387.142851,173.32976 387.142851,387.14285 z"
       transform="matrix(0.22194701,0,0,0.22194701,-630.79283,798.24487)" />
    <path
       sodipodi:type="arc"
       style="fill:none;stroke:#f9f9f9;stroke-width:0.42605752;stroke-miterlimit:4;stroke-dasharray:1.27817252, 1.27817252;stroke-dashoffset:0"
       id="path2991"
       sodipodi:cx="32.857143"
       sodipodi:cy="92.207542"
       sodipodi:rx="55.357143"
       sodipodi:ry="55.357143"
       d="m 88.214287,92.207542 a 55.357143,55.357143 0 1 1 -110.714287,0 55.357143,55.357143 0 1 1 110.714287,0 z"
       transform="matrix(1.1796109,0,0,1.1796109,-762.45216,830.14382)" />
    <path
       sodipodi:type="arc"
       style="fill:none;stroke:#f9f9f9;stroke-width:0.46126875000000001;stroke-miterlimit:4;stroke-dasharray:1.38380622000000009, 1.38380622000000009;stroke-dashoffset:0"
       id="path2991-3"
       sodipodi:cx="32.857143"
       sodipodi:cy="92.207542"
       sodipodi:rx="55.357143"
       sodipodi:ry="55.357143"
       d="m 88.214287,92.207542 c 0,30.572908 -24.784238,55.357148 -55.357144,55.357148 C 2.2842373,147.56469 -22.5,122.78045 -22.5,92.207542 c 0,-30.572906 24.7842373,-55.357143 55.357143,-55.357143 30.572906,0 55.357144,24.784237 55.357144,55.357143 z"
       transform="matrix(1.0836235,0,0,1.0836235,-759.29828,838.99458)" />
    <text
       xml:space="preserve"
       style="font-size:13.60228539px;font-style:normal;font-variant:normal;font-weight:normal;font-stretch:normal;line-height:125%;letter-spacing:0px;word-spacing:0px;fill:#b3b3b3;fill-opacity:1;stroke:none;font-family:Ubuntu Mono;-inkscape-font-specification:Ubuntu Mono"
       id="text3033"
       sodipodi:linespacing="125%"
       transform="matrix(0.87997903,0.47501254,-0.47501254,0.87997903,358.74415,454.89698)"><textPath
         xlink:href="#path3813"
         id="textPath3818"
         style="font-size:10px;fill:#b3b3b3">falanster.by</textPath></text>
    <g
       id="g3105"
       transform="matrix(0.34086756,0,0,0.34086756,-813.32706,618.35115)">
      <path
         d="m 131.97691,935.6615 -6.43528,29.95185 c -0.58263,2.64827 -1.27119,4.89929 -2.06564,6.75307 -0.74153,1.90674 -1.69491,3.44274 -2.86012,4.60798 -1.16525,1.21819 -2.59531,2.09211 -4.29019,2.62178 -1.64193,0.52963 -3.60164,0.79446 -5.87914,0.79447 -0.79448,-1e-5 -1.69489,-0.10593 -2.70124,-0.31779 -1.00633,-0.21187 -1.80081,-0.52966 -2.38343,-0.95337 l 1.50952,-5.48191 c 1.11226,0.68855 2.64825,1.03282 4.60797,1.03283 2.1186,-10e-6 3.76052,-0.82097 4.92577,-2.46288 1.16522,-1.64194 2.03914,-3.81351 2.62178,-6.51473 l 6.35582,-30.0313 -7.94478,0 1.35061,-5.4819 7.78589,0 0.71504,-3.33681 c 1.00631,-4.76683 2.78065,-8.42143 5.32301,-10.96381 2.59526,-2.59524 6.43524,-3.89289 11.51994,-3.89294 1.64188,5e-5 3.20435,0.15894 4.68742,0.47668 1.48298,0.31785 2.59525,0.68861 3.33681,1.11227 l -2.62178,5.24356 c -0.42376,-0.21181 -1.08583,-0.45015 -1.9862,-0.71503 -0.84748,-0.31774 -2.19809,-0.47663 -4.05183,-0.47668 -1.53604,5e-5 -2.86017,0.23839 -3.9724,0.71503 -1.05934,0.42377 -1.98623,1.05934 -2.78068,1.90674 -0.74155,0.79452 -1.35064,1.77439 -1.8273,2.93958 -0.42375,1.11231 -0.79451,2.35699 -1.11227,3.73404 l -0.71503,3.25737 14.93621,0 -1.35063,5.4819 -14.69785,0"
         style="font-size:77.4107132px;font-style:italic;font-variant:normal;font-weight:normal;font-stretch:normal;line-height:125%;letter-spacing:0px;word-spacing:0px;fill:#f9f9f9;fill-opacity:1;stroke:none;font-family:Ubuntu Mono;-inkscape-font-specification:Ubuntu Mono Italic"
         id="path3091"
         inkscape:connector-curvature="0" />
      <path
         d="m 173.74932,950.9155 32.49418,0 0,5.64079 -32.49418,0 0,-5.64079 m 0,-15.0951 32.49418,0 0,5.64079 -32.49418,0 0,-5.64079"
         style="font-size:77.4107132px;font-style:normal;font-variant:normal;font-weight:normal;font-stretch:normal;line-height:125%;letter-spacing:0px;word-spacing:0px;fill:#f9f9f9;fill-opacity:1;stroke:none;font-family:Ubuntu Mono;-inkscape-font-specification:Ubuntu Mono"
         id="path3093"
         inkscape:connector-curvature="0" />
      <path
         d="m 293.15947,948.69096 c 0,-3.33679 0.52965,-6.2234 1.58896,-8.65983 1.0593,-2.43637 2.51585,-4.44905 4.36963,-6.03803 1.85377,-1.58892 3.99887,-2.75416 6.43528,-3.49571 2.48935,-0.79445 5.13761,-1.19168 7.94479,-1.19172 1.80079,4e-5 3.57513,0.13245 5.32301,0.39724 1.80078,0.2119 3.70753,0.63562 5.72024,1.27117 l -1.5095,5.6408 c -1.74789,-0.63556 -3.36332,-1.0328 -4.84632,-1.19172 -1.43009,-0.21183 -2.88664,-0.31776 -4.36964,-0.31779 -1.90677,3e-5 -3.70758,0.26485 -5.40245,0.79447 -1.69491,0.47673 -3.17794,1.2712 -4.44908,2.38344 -1.21822,1.05933 -2.19808,2.46291 -2.93958,4.21074 -0.74152,1.69491 -1.11228,3.76055 -1.11227,6.19694 -10e-6,2.33048 0.34427,4.34316 1.03282,6.03803 0.68854,1.64193 1.64192,3.01903 2.86013,4.13129 1.27115,1.05931 2.78065,1.8538 4.52853,2.38344 1.74783,0.52966 3.68106,0.79448 5.79969,0.79448 1.69486,0 3.3103,-0.0794 4.84632,-0.23834 1.58893,-0.21186 3.3103,-0.63558 5.16412,-1.27118 l 0.95337,5.48191 c -1.85382,0.68855 -3.73409,1.16524 -5.6408,1.43007 -1.90678,0.31778 -3.97242,0.47668 -6.19694,0.47668 -2.96607,0 -5.69377,-0.39724 -8.18312,-1.19172 -2.43642,-0.84744 -4.55503,-2.06564 -6.35584,-3.6546 -1.74785,-1.58895 -3.12495,-3.57515 -4.13129,-5.9586 -0.95337,-2.43638 -1.43006,-5.24354 -1.43006,-8.42146"
         style="font-size:77.4107132px;font-style:normal;font-variant:normal;font-weight:normal;font-stretch:normal;line-height:125%;letter-spacing:0px;word-spacing:0px;fill:#f9f9f9;fill-opacity:1;stroke:none;font-family:Ubuntu Mono;-inkscape-font-specification:Ubuntu Mono"
         id="path3095"
         inkscape:connector-curvature="0" />
      <path
         d="m 373.29478,948.61151 c 0,4.1313 0.79447,7.3357 2.38343,9.61319 1.64191,2.22455 3.62811,3.38978 5.9586,3.4957 l 0,-26.21779 c -2.33049,0.10595 -4.31669,1.29767 -5.9586,3.57515 -1.58896,2.22457 -2.38343,5.40248 -2.38343,9.53375 m 14.14172,13.10889 c 2.33045,-0.10592 4.31665,-1.27115 5.95859,-3.4957 1.6419,-2.27749 2.46286,-5.48189 2.46289,-9.61319 -3e-5,-4.13127 -0.82099,-7.30918 -2.46289,-9.53375 -1.64194,-2.27748 -3.62814,-3.4692 -5.95859,-3.57515 l 0,26.21779 m 0,18.43191 -5.79969,0 0,-12.87056 c -2.0127,-0.053 -3.91944,-0.50316 -5.72025,-1.35061 -1.74786,-0.84744 -3.31034,-2.06564 -4.68743,-3.6546 -1.3771,-1.58895 -2.46288,-3.52218 -3.25735,-5.79969 -0.79448,-2.33046 -1.19173,-4.95223 -1.19173,-7.86534 0,-3.1779 0.4502,-5.95857 1.35062,-8.34203 0.95337,-2.38341 2.22453,-4.36961 3.8135,-5.95859 1.64191,-1.58892 3.54866,-2.78064 5.72024,-3.57515 2.17156,-0.79444 4.50203,-1.19169 6.99142,-1.19172 2.43637,3e-5 4.71388,0.39728 6.83252,1.19172 2.17154,0.79451 4.0518,1.98623 5.6408,3.57515 1.64189,1.58898 2.91305,3.57518 3.81349,5.95859 0.95334,2.38346 1.43003,5.16413 1.43006,8.34203 -3e-5,2.91311 -0.39728,5.53488 -1.19172,7.86534 -0.79451,2.27751 -1.88029,4.21074 -3.25736,5.79969 -1.37712,1.58896 -2.96608,2.80716 -4.76687,3.6546 -1.80085,0.84745 -3.70759,1.29765 -5.72025,1.35061 l 0,12.87056"
         style="font-size:77.4107132px;font-style:normal;font-variant:normal;font-weight:normal;font-stretch:normal;line-height:125%;letter-spacing:0px;word-spacing:0px;fill:#f9f9f9;fill-opacity:1;stroke:none;font-family:Ubuntu Mono;-inkscape-font-specification:Ubuntu Mono"
         id="path3097"
         inkscape:connector-curvature="0" />
      <g
         transform="matrix(1.8218826,0,0,1.8218826,-78.09519,-617.89421)"
         id="text3067"
         style="font-size:79.98180389px;font-style:normal;font-variant:normal;font-weight:normal;font-stretch:normal;line-height:125%;letter-spacing:0px;word-spacing:0px;fill:#f9f9f9;fill-opacity:1;stroke:none;font-family:Ubuntu Mono;-inkscape-font-specification:Ubuntu Mono">
        <path
           style="fill:#f9f9f9"
           sodipodi:nodetypes="cscccccsccccccccccc"
           inkscape:connector-curvature="0"
           id="path3112"
           d="m 184.77682,857.91255 c -2.61277,3.41258 -5.33214,6.82513 -8.15815,10.23767 -2.82604,3.41257 -5.03992,7.89778 -7.2794,11.09704 l 27.1354,0 0.0599,4.41943 -32.5526,0 0.003,-4.31493 c 1.81292,-2.93266 4.12919,-7.04248 6.95522,-10.56169 2.82601,-3.51918 5.67869,-7.11836 8.55805,-10.79754 -2.77272,-3.67914 -5.49209,-7.22499 -8.15814,-10.63758 -2.61275,-3.46584 -4.71894,-7.09298 -6.31857,-9.49248 l 0.0201,-3.70452 31.43284,0 -1e-5,3.67305 -26.44805,0 c 0.69316,1.01314 2.61959,4.13855 3.63271,5.52486 1.01308,1.38639 2.13283,2.87938 3.35923,4.47898 1.22637,1.59967 2.50608,3.27929 3.83913,5.03885 1.333,1.70631 2.63937,3.38593 3.91911,5.03886" />
      </g>
      <g
         id="text3071"
         style="font-size:40px;font-style:normal;font-variant:normal;font-weight:normal;font-stretch:normal;line-height:125%;letter-spacing:0px;word-spacing:0px;fill:#cccccc;fill-opacity:1;stroke:none;font-family:Ubuntu Mono;-inkscape-font-specification:Ubuntu Mono"
         transform="matrix(0,-1.0861978,1.0861978,0,69.587326,805.27234)">
        <path
           style="fill:#cccccc"
           inkscape:connector-curvature="0"
           id="path3076"
           d="m -60.611426,173.46437 c -1.8e-5,2.08001 -0.666684,3.76001 -2,5.04 -1.306682,1.28 -3.30668,1.92 -6,1.92 -1.546675,0 -2.826674,-0.2 -3.84,-0.6 -1.013339,-0.42666 -1.826671,-0.96 -2.44,-1.6 -0.58667,-0.66666 -1.013336,-1.39999 -1.28,-2.2 -0.240003,-0.79999 -0.360002,-1.58666 -0.36,-2.36 -2e-6,-1.41332 0.386664,-2.66665 1.16,-3.76 0.773329,-1.09332 1.693328,-1.97332 2.76,-2.64 -2.266671,-1.27998 -3.400003,-3.23998 -3.4,-5.88 -3e-6,-0.90664 0.17333,-1.77331 0.52,-2.6 0.346663,-0.82664 0.839996,-1.54664 1.48,-2.16 0.639994,-0.61331 1.413327,-1.10664 2.32,-1.48 0.933325,-0.37331 1.973324,-0.55997 3.12,-0.56 1.333322,3e-5 2.466654,0.20003 3.4,0.6 0.959985,0.40003 1.733318,0.92003 2.32,1.56 0.58665,0.61336 1.013316,1.30669 1.28,2.08 0.266649,0.74669 0.399982,1.48002 0.4,2.2 -1.8e-5,1.41335 -0.360017,2.64002 -1.08,3.68 -0.720016,1.01335 -1.546682,1.82668 -2.48,2.44 2.74665,1.30668 4.119982,3.41335 4.12,6.32 m -12.72,0.24 c -6e-6,0.42668 0.07999,0.88001 0.24,1.36 0.159994,0.45334 0.42666,0.88001 0.8,1.28 0.373326,0.40001 0.866659,0.73334 1.48,1 0.613325,0.24001 1.35999,0.36001 2.24,0.36 0.826655,10e-6 1.533321,-0.10666 2.12,-0.32 0.61332,-0.23999 1.106653,-0.54666 1.48,-0.92 0.399986,-0.39999 0.693319,-0.83999 0.88,-1.32 0.186652,-0.47999 0.279985,-0.95999 0.28,-1.44 -1.5e-5,-1.51999 -0.546681,-2.67999 -1.64,-3.48 -1.093346,-0.82665 -2.600011,-1.45332 -4.52,-1.88 -1.066675,0.58668 -1.89334,1.32001 -2.48,2.2 -0.586673,0.88001 -0.880006,1.93334 -0.88,3.16 m 8.96,-12.68 c -1.5e-5,-0.34664 -0.08002,-0.73331 -0.24,-1.16 -0.160014,-0.45331 -0.413347,-0.85331 -0.76,-1.2 -0.320013,-0.37331 -0.74668,-0.67997 -1.28,-0.92 -0.533345,-0.26664 -1.173344,-0.39997 -1.92,-0.4 -0.773343,3e-5 -1.426676,0.12003 -1.96,0.36 -0.506675,0.24003 -0.933341,0.54669 -1.28,0.92 -0.346673,0.34669 -0.600007,0.74669 -0.76,1.2 -0.13334,0.42669 -0.200006,0.85336 -0.2,1.28 -6e-6,1.09335 0.38666,2.12002 1.16,3.08 0.799992,0.93335 2.106657,1.61335 3.92,2.04 1.013321,-0.58665 1.81332,-1.27998 2.4,-2.08 0.613319,-0.79998 0.919985,-1.83998 0.92,-3.12" />
      </g>
      <g
         transform="matrix(1.0263163,0,0,1.0263163,-14.772733,-26.9005)"
         id="text3078"
         style="font-size:36.18341446px;font-style:normal;font-variant:normal;font-weight:normal;font-stretch:normal;line-height:125%;letter-spacing:0px;word-spacing:0px;fill:#cccccc;fill-opacity:1;stroke:none;font-family:Ubuntu Mono;-inkscape-font-specification:Ubuntu Mono">
        <path
           inkscape:connector-curvature="0"
           id="path3084"
           style="font-size:35.50333786px;fill:#cccccc"
           d="m 236.11691,1006.1877 c 1.0651,-0.2603 2.11836,-0.4615 3.1598,-0.6036 1.06509,-0.142 2.05919,-0.213 2.98228,-0.213 2.2012,0 3.85802,0.5681 4.97047,1.7042 1.13609,1.1361 1.70414,2.9586 1.70416,5.4675 l 0,9.6569 -2.91128,0 0,-9.1244 c -1e-5,-1.065 -0.0947,-1.929 -0.28402,-2.5917 -0.18937,-0.6627 -0.46156,-1.1716 -0.81658,-1.5266 -0.33137,-0.3787 -0.74558,-0.6391 -1.24262,-0.7811 -0.47338,-0.142 -0.9941,-0.213 -1.56214,-0.213 -0.47339,0 -0.98227,0.035 -1.52665,0.1065 -0.52072,0.047 -1.0296,0.1183 -1.52664,0.213 l 0,13.9173 -2.94678,0 0,-16.012" />
        <path
           inkscape:connector-curvature="0"
           id="path3086"
           style="font-size:35.50333786px;fill:#cccccc"
           d="m 252.981,1014.9925 14.52086,0 0,2.5208 -14.52086,0 0,-2.5208 m 0,-6.7456 14.52086,0 0,2.5207 -14.52086,0 0,-2.5207" />
        <path
           inkscape:connector-curvature="0"
           id="path3088"
           style="font-size:35.50333786px;fill:#cccccc"
           d="m 271.76226,1004.7676 c 1.20711,-0.4734 2.37872,-1.0651 3.51483,-1.7752 1.1361,-0.7337 2.18937,-1.6568 3.1598,-2.7693 l 2.0592,0 0,19.4914 4.15389,0 0,2.4852 -11.82262,0 0,-2.4852 4.75745,0 0,-15.4085 c -0.26036,0.2367 -0.57989,0.4853 -0.95859,0.7456 -0.35504,0.2367 -0.75741,0.4734 -1.20711,0.7101 -0.42605,0.2367 -0.87576,0.4615 -1.34913,0.6745 -0.47338,0.2131 -0.93492,0.3906 -1.38463,0.5326 l -0.92309,-2.2012" />
      </g>
      <g
         transform="matrix(1.0263163,0,0,1.0263163,-16.772733,-26.9005)"
         id="text3082"
         style="font-size:40px;font-style:normal;font-variant:normal;font-weight:normal;font-stretch:normal;line-height:125%;letter-spacing:0px;word-spacing:0px;fill:#cccccc;fill-opacity:1;stroke:none;font-family:Ubuntu Mono;-inkscape-font-specification:Ubuntu Mono">
        <path
           inkscape:connector-curvature="0"
           id="path3081"
           style="font-size:35px;fill:#cccccc"
           d="m 341.2769,962.72 c 1.05,-0.25665 2.08833,-0.45498 3.115,-0.595 1.04999,-0.13998 2.02999,-0.20998 2.94,-0.21 2.16999,2e-5 3.80332,0.56002 4.9,1.68 1.11999,1.12002 1.67999,2.91668 1.68,5.39 l 0,9.52 -2.87,0 0,-8.995 c -10e-6,-1.04999 -0.0933,-1.90165 -0.28,-2.555 -0.18668,-0.65332 -0.45501,-1.15498 -0.805,-1.505 -0.32668,-0.37332 -0.73501,-0.62998 -1.225,-0.77 -0.46668,-0.13998 -0.98001,-0.20998 -1.54,-0.21 -0.46667,2e-5 -0.96834,0.035 -1.505,0.105 -0.51334,0.0467 -1.01501,0.11669 -1.505,0.21 l 0,13.72 -2.905,0 0,-15.785" />
      </g>
      <g
         transform="matrix(1.0263163,0,0,1.0263163,-20.772733,-29.043357)"
         id="text3082-3"
         style="font-size:40px;font-style:normal;font-variant:normal;font-weight:normal;font-stretch:normal;line-height:125%;letter-spacing:0px;word-spacing:0px;fill:#cccccc;fill-opacity:1;stroke:none;font-family:Ubuntu Mono;-inkscape-font-specification:Ubuntu Mono">
        <path
           inkscape:connector-curvature="0"
           id="path3078"
           style="font-size:35px;fill:#cccccc"
           d="m 418.43501,965.3389 c 1.05,-0.25665 2.08833,-0.45498 3.115,-0.595 1.05,-0.13998 2.02999,-0.20998 2.94,-0.21 2.16999,2e-5 3.80332,0.56002 4.9,1.68 1.11999,1.12002 1.67999,2.91668 1.68,5.39 l 0,9.52 -2.87,0 0,-8.995 c -1e-5,-1.04999 -0.0933,-1.90165 -0.28,-2.555 -0.18668,-0.65332 -0.45501,-1.15499 -0.805,-1.505 -0.32668,-0.37332 -0.73501,-0.62998 -1.225,-0.77 -0.46667,-0.13998 -0.98001,-0.20998 -1.54,-0.21 -0.46667,2e-5 -0.96834,0.035 -1.505,0.105 -0.51334,0.0467 -1.015,0.11668 -1.505,0.21 l 0,13.72 -2.905,0 0,-15.785" />
      </g>
    </g>
    <text
       xml:space="preserve"
       style="font-size:13.60228539px;font-style:normal;font-variant:normal;font-weight:normal;font-stretch:normal;line-height:125%;letter-spacing:0px;word-spacing:0px;fill:#b3b3b3;fill-opacity:1;stroke:none;font-family:Ubuntu Mono;-inkscape-font-specification:Ubuntu Mono"
       id="text3033-6"
       sodipodi:linespacing="125%"><textPath
         xlink:href="#path2991-3-5"
         id="textPath3106"
         style="fill:#ccff00;font-size:18px">Рады Фур'е</textPath></text>
    <path
       sodipodi:type="arc"
       style="fill:none;stroke:none;stroke-width:0.46126875000000001;stroke-miterlimit:4;stroke-dasharray:1.38380622000000009, 1.38380622000000009;stroke-dashoffset:0"
       id="path2991-3-5"
       sodipodi:cx="32.857143"
       sodipodi:cy="92.207542"
       sodipodi:rx="55.357143"
       sodipodi:ry="55.357143"
       d="m 88.214287,92.207542 a 55.357143,55.357143 0 1 1 -110.714287,0 55.357143,55.357143 0 1 1 110.714287,0 z"
       transform="matrix(-0.66627471,-0.44647193,0.44647193,-0.66627471,-743.25799,1016.7813)" />
  </g>
</svg>
